<mxfile host="app.diagrams.net" modified="2023-03-29T02:29:36.182Z" agent="Mozilla/5.0 (Windows NT 10.0; Win64; x64) AppleWebKit/537.36 (KHTML, like Gecko) Chrome/111.0.0.0 Safari/537.36" etag="yQHy_xDSKvY6ywzgcI_x" version="21.1.0" type="github">
  <diagram name="第 1 页" id="np9ylYSEgCcjItwMwyFh">
    <mxGraphModel dx="1434" dy="796" grid="0" gridSize="10" guides="1" tooltips="1" connect="1" arrows="1" fold="1" page="1" pageScale="1" pageWidth="827" pageHeight="1169" math="0" shadow="0">
      <root>
        <mxCell id="0" />
        <mxCell id="1" parent="0" />
        <mxCell id="5_tiHbaoTRnMNyBQFw8H-37" value="" style="edgeStyle=orthogonalEdgeStyle;rounded=0;orthogonalLoop=1;jettySize=auto;html=1;" parent="1" source="5_tiHbaoTRnMNyBQFw8H-1" target="5_tiHbaoTRnMNyBQFw8H-18" edge="1">
          <mxGeometry relative="1" as="geometry" />
        </mxCell>
        <mxCell id="5_tiHbaoTRnMNyBQFw8H-1" value="关键帧位姿" style="ellipse;whiteSpace=wrap;html=1;aspect=fixed;fillColor=#bac8d3;fontFamily=Tahoma;strokeColor=#23445d;" parent="1" vertex="1">
          <mxGeometry x="70" y="240" width="60" height="60" as="geometry" />
        </mxCell>
        <mxCell id="5_tiHbaoTRnMNyBQFw8H-31" style="edgeStyle=orthogonalEdgeStyle;rounded=0;orthogonalLoop=1;jettySize=auto;html=1;entryX=0.5;entryY=0;entryDx=0;entryDy=0;" parent="1" source="5_tiHbaoTRnMNyBQFw8H-6" target="5_tiHbaoTRnMNyBQFw8H-12" edge="1">
          <mxGeometry relative="1" as="geometry">
            <Array as="points">
              <mxPoint x="100" y="140" />
              <mxPoint x="445" y="140" />
            </Array>
          </mxGeometry>
        </mxCell>
        <mxCell id="5_tiHbaoTRnMNyBQFw8H-36" value="" style="edgeStyle=orthogonalEdgeStyle;rounded=0;orthogonalLoop=1;jettySize=auto;html=1;" parent="1" source="5_tiHbaoTRnMNyBQFw8H-6" target="5_tiHbaoTRnMNyBQFw8H-17" edge="1">
          <mxGeometry relative="1" as="geometry" />
        </mxCell>
        <mxCell id="5_tiHbaoTRnMNyBQFw8H-43" style="edgeStyle=orthogonalEdgeStyle;rounded=0;orthogonalLoop=1;jettySize=auto;html=1;entryX=0.5;entryY=0;entryDx=0;entryDy=0;" parent="1" source="5_tiHbaoTRnMNyBQFw8H-6" target="5_tiHbaoTRnMNyBQFw8H-18" edge="1">
          <mxGeometry relative="1" as="geometry" />
        </mxCell>
        <mxCell id="5_tiHbaoTRnMNyBQFw8H-6" value="关键帧点云" style="ellipse;whiteSpace=wrap;html=1;aspect=fixed;fillColor=#bac8d3;fontFamily=Tahoma;strokeColor=#23445d;" parent="1" vertex="1">
          <mxGeometry x="70" y="150" width="60" height="60" as="geometry" />
        </mxCell>
        <mxCell id="5_tiHbaoTRnMNyBQFw8H-41" style="edgeStyle=orthogonalEdgeStyle;rounded=0;orthogonalLoop=1;jettySize=auto;html=1;entryX=0.5;entryY=1;entryDx=0;entryDy=0;" parent="1" source="5_tiHbaoTRnMNyBQFw8H-7" target="5_tiHbaoTRnMNyBQFw8H-18" edge="1">
          <mxGeometry relative="1" as="geometry" />
        </mxCell>
        <mxCell id="5_tiHbaoTRnMNyBQFw8H-7" value="关键帧时间" style="ellipse;whiteSpace=wrap;html=1;aspect=fixed;fillColor=#bac8d3;fontFamily=Tahoma;strokeColor=#23445d;" parent="1" vertex="1">
          <mxGeometry x="70" y="330" width="60" height="60" as="geometry" />
        </mxCell>
        <mxCell id="5_tiHbaoTRnMNyBQFw8H-11" value="三维静态点云地图" style="rounded=1;whiteSpace=wrap;html=1;fontFamily=Tahoma;fillColor=#fff2cc;strokeColor=#d6b656;" parent="1" vertex="1">
          <mxGeometry x="570" y="200" width="20" height="140" as="geometry" />
        </mxCell>
        <mxCell id="5_tiHbaoTRnMNyBQFw8H-29" value="" style="edgeStyle=orthogonalEdgeStyle;rounded=0;orthogonalLoop=1;jettySize=auto;html=1;" parent="1" source="5_tiHbaoTRnMNyBQFw8H-12" target="5_tiHbaoTRnMNyBQFw8H-20" edge="1">
          <mxGeometry relative="1" as="geometry" />
        </mxCell>
        <mxCell id="5_tiHbaoTRnMNyBQFw8H-12" value="区域地平面拟合" style="rounded=1;whiteSpace=wrap;html=1;fontFamily=Tahoma;fillColor=#6d8764;fontColor=#ffffff;strokeColor=#3A5431;" parent="1" vertex="1">
          <mxGeometry x="400" y="250" width="90" height="40" as="geometry" />
        </mxCell>
        <mxCell id="5_tiHbaoTRnMNyBQFw8H-15" value="&lt;div data-processon-v=&quot;{&amp;quot;list&amp;quot;:[{&amp;quot;parent&amp;quot;:&amp;quot;&amp;quot;,&amp;quot;link&amp;quot;:&amp;quot;&amp;quot;,&amp;quot;shapeStyle&amp;quot;:{&amp;quot;alpha&amp;quot;:1},&amp;quot;textBlock&amp;quot;:[{&amp;quot;position&amp;quot;:{&amp;quot;w&amp;quot;:&amp;quot;w-20&amp;quot;,&amp;quot;h&amp;quot;:&amp;quot;h&amp;quot;,&amp;quot;x&amp;quot;:10,&amp;quot;y&amp;quot;:0},&amp;quot;text&amp;quot;:&amp;quot;关键帧点云&amp;quot;}],&amp;quot;anchors&amp;quot;:[{&amp;quot;x&amp;quot;:&amp;quot;w/2&amp;quot;,&amp;quot;y&amp;quot;:&amp;quot;0&amp;quot;},{&amp;quot;x&amp;quot;:&amp;quot;w/2&amp;quot;,&amp;quot;y&amp;quot;:&amp;quot;h&amp;quot;},{&amp;quot;x&amp;quot;:&amp;quot;0&amp;quot;,&amp;quot;y&amp;quot;:&amp;quot;h/2&amp;quot;},{&amp;quot;x&amp;quot;:&amp;quot;w&amp;quot;,&amp;quot;y&amp;quot;:&amp;quot;h/2&amp;quot;}],&amp;quot;fontStyle&amp;quot;:{&amp;quot;color&amp;quot;:&amp;quot;33,33,33&amp;quot;},&amp;quot;dataAttributes&amp;quot;:[{&amp;quot;name&amp;quot;:&amp;quot;序号&amp;quot;,&amp;quot;id&amp;quot;:&amp;quot;WbGneogPtD269022&amp;quot;,&amp;quot;category&amp;quot;:&amp;quot;default&amp;quot;,&amp;quot;type&amp;quot;:&amp;quot;number&amp;quot;,&amp;quot;value&amp;quot;:&amp;quot;&amp;quot;},{&amp;quot;name&amp;quot;:&amp;quot;名称&amp;quot;,&amp;quot;id&amp;quot;:&amp;quot;pYLETVvyvk810339&amp;quot;,&amp;quot;category&amp;quot;:&amp;quot;default&amp;quot;,&amp;quot;type&amp;quot;:&amp;quot;string&amp;quot;,&amp;quot;value&amp;quot;:&amp;quot;&amp;quot;},{&amp;quot;name&amp;quot;:&amp;quot;所有者&amp;quot;,&amp;quot;id&amp;quot;:&amp;quot;ycEeWShMAY511303&amp;quot;,&amp;quot;category&amp;quot;:&amp;quot;default&amp;quot;,&amp;quot;type&amp;quot;:&amp;quot;string&amp;quot;,&amp;quot;value&amp;quot;:&amp;quot;&amp;quot;},{&amp;quot;name&amp;quot;:&amp;quot;连接&amp;quot;,&amp;quot;id&amp;quot;:&amp;quot;hBJHStNLsW426431&amp;quot;,&amp;quot;category&amp;quot;:&amp;quot;default&amp;quot;,&amp;quot;type&amp;quot;:&amp;quot;link&amp;quot;,&amp;quot;value&amp;quot;:&amp;quot;&amp;quot;},{&amp;quot;name&amp;quot;:&amp;quot;便笺&amp;quot;,&amp;quot;id&amp;quot;:&amp;quot;EGMqItFVrx682388&amp;quot;,&amp;quot;category&amp;quot;:&amp;quot;default&amp;quot;,&amp;quot;type&amp;quot;:&amp;quot;string&amp;quot;,&amp;quot;value&amp;quot;:&amp;quot;&amp;quot;},{&amp;quot;name&amp;quot;:&amp;quot;成本&amp;quot;,&amp;quot;id&amp;quot;:&amp;quot;vhezSmYPwj245101&amp;quot;,&amp;quot;category&amp;quot;:&amp;quot;default&amp;quot;,&amp;quot;type&amp;quot;:&amp;quot;number&amp;quot;,&amp;quot;value&amp;quot;:&amp;quot;&amp;quot;},{&amp;quot;name&amp;quot;:&amp;quot;时间&amp;quot;,&amp;quot;id&amp;quot;:&amp;quot;VqpkiRZbzq307465&amp;quot;,&amp;quot;category&amp;quot;:&amp;quot;default&amp;quot;,&amp;quot;type&amp;quot;:&amp;quot;number&amp;quot;,&amp;quot;value&amp;quot;:&amp;quot;&amp;quot;},{&amp;quot;name&amp;quot;:&amp;quot;部门&amp;quot;,&amp;quot;id&amp;quot;:&amp;quot;DVqjNkYbbj005844&amp;quot;,&amp;quot;category&amp;quot;:&amp;quot;default&amp;quot;,&amp;quot;type&amp;quot;:&amp;quot;string&amp;quot;,&amp;quot;value&amp;quot;:&amp;quot;&amp;quot;},{&amp;quot;name&amp;quot;:&amp;quot;输入&amp;quot;,&amp;quot;id&amp;quot;:&amp;quot;QKeMGFplGY472978&amp;quot;,&amp;quot;category&amp;quot;:&amp;quot;default&amp;quot;,&amp;quot;type&amp;quot;:&amp;quot;string&amp;quot;,&amp;quot;value&amp;quot;:&amp;quot;&amp;quot;},{&amp;quot;name&amp;quot;:&amp;quot;输出&amp;quot;,&amp;quot;id&amp;quot;:&amp;quot;KhAprFxZMM976021&amp;quot;,&amp;quot;category&amp;quot;:&amp;quot;default&amp;quot;,&amp;quot;type&amp;quot;:&amp;quot;string&amp;quot;,&amp;quot;value&amp;quot;:&amp;quot;&amp;quot;},{&amp;quot;name&amp;quot;:&amp;quot;风险&amp;quot;,&amp;quot;id&amp;quot;:&amp;quot;cRpPorZqQw131963&amp;quot;,&amp;quot;category&amp;quot;:&amp;quot;default&amp;quot;,&amp;quot;type&amp;quot;:&amp;quot;string&amp;quot;,&amp;quot;value&amp;quot;:&amp;quot;&amp;quot;},{&amp;quot;name&amp;quot;:&amp;quot;备注&amp;quot;,&amp;quot;id&amp;quot;:&amp;quot;bTrvqBlnoW994187&amp;quot;,&amp;quot;category&amp;quot;:&amp;quot;default&amp;quot;,&amp;quot;type&amp;quot;:&amp;quot;string&amp;quot;,&amp;quot;value&amp;quot;:&amp;quot;&amp;quot;}],&amp;quot;props&amp;quot;:{&amp;quot;zindex&amp;quot;:196,&amp;quot;w&amp;quot;:101.95833333333326,&amp;quot;x&amp;quot;:921.2633243181645,&amp;quot;h&amp;quot;:39.23282211650053,&amp;quot;y&amp;quot;:1206.5747632703085,&amp;quot;angle&amp;quot;:0},&amp;quot;path&amp;quot;:[{&amp;quot;actions&amp;quot;:[{&amp;quot;x&amp;quot;:&amp;quot;0&amp;quot;,&amp;quot;action&amp;quot;:&amp;quot;move&amp;quot;,&amp;quot;y&amp;quot;:&amp;quot;0&amp;quot;},{&amp;quot;x&amp;quot;:&amp;quot;w&amp;quot;,&amp;quot;action&amp;quot;:&amp;quot;line&amp;quot;,&amp;quot;y&amp;quot;:&amp;quot;0&amp;quot;},{&amp;quot;x&amp;quot;:&amp;quot;w&amp;quot;,&amp;quot;action&amp;quot;:&amp;quot;line&amp;quot;,&amp;quot;y&amp;quot;:&amp;quot;h&amp;quot;},{&amp;quot;x&amp;quot;:&amp;quot;0&amp;quot;,&amp;quot;action&amp;quot;:&amp;quot;line&amp;quot;,&amp;quot;y&amp;quot;:&amp;quot;h&amp;quot;},{&amp;quot;action&amp;quot;:&amp;quot;close&amp;quot;}]}],&amp;quot;lineStyle&amp;quot;:{},&amp;quot;children&amp;quot;:[],&amp;quot;resizeDir&amp;quot;:[&amp;quot;tl&amp;quot;,&amp;quot;tr&amp;quot;,&amp;quot;br&amp;quot;,&amp;quot;bl&amp;quot;],&amp;quot;name&amp;quot;:&amp;quot;process&amp;quot;,&amp;quot;fillStyle&amp;quot;:{},&amp;quot;attribute&amp;quot;:{&amp;quot;container&amp;quot;:false,&amp;quot;rotatable&amp;quot;:true,&amp;quot;visible&amp;quot;:true,&amp;quot;collapsable&amp;quot;:false,&amp;quot;collapsed&amp;quot;:false,&amp;quot;linkable&amp;quot;:true,&amp;quot;markerOffset&amp;quot;:5},&amp;quot;id&amp;quot;:&amp;quot;hXEpCicZCC312153&amp;quot;,&amp;quot;category&amp;quot;:&amp;quot;flow&amp;quot;,&amp;quot;locked&amp;quot;:false,&amp;quot;group&amp;quot;:&amp;quot;&amp;quot;},{&amp;quot;parent&amp;quot;:&amp;quot;&amp;quot;,&amp;quot;link&amp;quot;:&amp;quot;&amp;quot;,&amp;quot;shapeStyle&amp;quot;:{&amp;quot;alpha&amp;quot;:1},&amp;quot;textBlock&amp;quot;:[{&amp;quot;position&amp;quot;:{&amp;quot;w&amp;quot;:&amp;quot;w-20&amp;quot;,&amp;quot;h&amp;quot;:&amp;quot;h&amp;quot;,&amp;quot;x&amp;quot;:10,&amp;quot;y&amp;quot;:0},&amp;quot;text&amp;quot;:&amp;quot;关键帧时间戳&lt;br&gt;&amp;quot;}],&amp;quot;anchors&amp;quot;:[{&amp;quot;x&amp;quot;:&amp;quot;w/2&amp;quot;,&amp;quot;y&amp;quot;:&amp;quot;0&amp;quot;},{&amp;quot;x&amp;quot;:&amp;quot;w/2&amp;quot;,&amp;quot;y&amp;quot;:&amp;quot;h&amp;quot;},{&amp;quot;x&amp;quot;:&amp;quot;0&amp;quot;,&amp;quot;y&amp;quot;:&amp;quot;h/2&amp;quot;},{&amp;quot;x&amp;quot;:&amp;quot;w&amp;quot;,&amp;quot;y&amp;quot;:&amp;quot;h/2&amp;quot;}],&amp;quot;fontStyle&amp;quot;:{&amp;quot;color&amp;quot;:&amp;quot;33,33,33&amp;quot;},&amp;quot;dataAttributes&amp;quot;:[{&amp;quot;name&amp;quot;:&amp;quot;序号&amp;quot;,&amp;quot;id&amp;quot;:&amp;quot;zvNOgqHvhM738080&amp;quot;,&amp;quot;category&amp;quot;:&amp;quot;default&amp;quot;,&amp;quot;type&amp;quot;:&amp;quot;number&amp;quot;,&amp;quot;value&amp;quot;:&amp;quot;&amp;quot;},{&amp;quot;name&amp;quot;:&amp;quot;名称&amp;quot;,&amp;quot;id&amp;quot;:&amp;quot;MYBEntyAff884234&amp;quot;,&amp;quot;category&amp;quot;:&amp;quot;default&amp;quot;,&amp;quot;type&amp;quot;:&amp;quot;string&amp;quot;,&amp;quot;value&amp;quot;:&amp;quot;&amp;quot;},{&amp;quot;name&amp;quot;:&amp;quot;所有者&amp;quot;,&amp;quot;id&amp;quot;:&amp;quot;idwcFZNimj886097&amp;quot;,&amp;quot;category&amp;quot;:&amp;quot;default&amp;quot;,&amp;quot;type&amp;quot;:&amp;quot;string&amp;quot;,&amp;quot;value&amp;quot;:&amp;quot;&amp;quot;},{&amp;quot;name&amp;quot;:&amp;quot;连接&amp;quot;,&amp;quot;id&amp;quot;:&amp;quot;AZBGRkPdcF728635&amp;quot;,&amp;quot;category&amp;quot;:&amp;quot;default&amp;quot;,&amp;quot;type&amp;quot;:&amp;quot;link&amp;quot;,&amp;quot;value&amp;quot;:&amp;quot;&amp;quot;},{&amp;quot;name&amp;quot;:&amp;quot;便笺&amp;quot;,&amp;quot;id&amp;quot;:&amp;quot;QJTzYgEOSm572940&amp;quot;,&amp;quot;category&amp;quot;:&amp;quot;default&amp;quot;,&amp;quot;type&amp;quot;:&amp;quot;string&amp;quot;,&amp;quot;value&amp;quot;:&amp;quot;&amp;quot;},{&amp;quot;name&amp;quot;:&amp;quot;成本&amp;quot;,&amp;quot;id&amp;quot;:&amp;quot;EnXrNmpjbD890251&amp;quot;,&amp;quot;category&amp;quot;:&amp;quot;default&amp;quot;,&amp;quot;type&amp;quot;:&amp;quot;number&amp;quot;,&amp;quot;value&amp;quot;:&amp;quot;&amp;quot;},{&amp;quot;name&amp;quot;:&amp;quot;时间&amp;quot;,&amp;quot;id&amp;quot;:&amp;quot;VaMAWFxCpK910481&amp;quot;,&amp;quot;category&amp;quot;:&amp;quot;default&amp;quot;,&amp;quot;type&amp;quot;:&amp;quot;number&amp;quot;,&amp;quot;value&amp;quot;:&amp;quot;&amp;quot;},{&amp;quot;name&amp;quot;:&amp;quot;部门&amp;quot;,&amp;quot;id&amp;quot;:&amp;quot;jzEqwacBFy859985&amp;quot;,&amp;quot;category&amp;quot;:&amp;quot;default&amp;quot;,&amp;quot;type&amp;quot;:&amp;quot;string&amp;quot;,&amp;quot;value&amp;quot;:&amp;quot;&amp;quot;},{&amp;quot;name&amp;quot;:&amp;quot;输入&amp;quot;,&amp;quot;id&amp;quot;:&amp;quot;vAfLlCHppQ081372&amp;quot;,&amp;quot;category&amp;quot;:&amp;quot;default&amp;quot;,&amp;quot;type&amp;quot;:&amp;quot;string&amp;quot;,&amp;quot;value&amp;quot;:&amp;quot;&amp;quot;},{&amp;quot;name&amp;quot;:&amp;quot;输出&amp;quot;,&amp;quot;id&amp;quot;:&amp;quot;IFIxqTdsYR706361&amp;quot;,&amp;quot;category&amp;quot;:&amp;quot;default&amp;quot;,&amp;quot;type&amp;quot;:&amp;quot;string&amp;quot;,&amp;quot;value&amp;quot;:&amp;quot;&amp;quot;},{&amp;quot;name&amp;quot;:&amp;quot;风险&amp;quot;,&amp;quot;id&amp;quot;:&amp;quot;eXETFVcJCL411941&amp;quot;,&amp;quot;category&amp;quot;:&amp;quot;default&amp;quot;,&amp;quot;type&amp;quot;:&amp;quot;string&amp;quot;,&amp;quot;value&amp;quot;:&amp;quot;&amp;quot;},{&amp;quot;name&amp;quot;:&amp;quot;备注&amp;quot;,&amp;quot;id&amp;quot;:&amp;quot;lGcUhTshKS911561&amp;quot;,&amp;quot;category&amp;quot;:&amp;quot;default&amp;quot;,&amp;quot;type&amp;quot;:&amp;quot;string&amp;quot;,&amp;quot;value&amp;quot;:&amp;quot;&amp;quot;}],&amp;quot;props&amp;quot;:{&amp;quot;zindex&amp;quot;:197,&amp;quot;w&amp;quot;:102.45833333333326,&amp;quot;x&amp;quot;:921.0133243181645,&amp;quot;h&amp;quot;:39.13292168380622,&amp;quot;y&amp;quot;:1376.7923150458855,&amp;quot;angle&amp;quot;:0},&amp;quot;path&amp;quot;:[{&amp;quot;actions&amp;quot;:[{&amp;quot;x&amp;quot;:&amp;quot;0&amp;quot;,&amp;quot;action&amp;quot;:&amp;quot;move&amp;quot;,&amp;quot;y&amp;quot;:&amp;quot;0&amp;quot;},{&amp;quot;x&amp;quot;:&amp;quot;w&amp;quot;,&amp;quot;action&amp;quot;:&amp;quot;line&amp;quot;,&amp;quot;y&amp;quot;:&amp;quot;0&amp;quot;},{&amp;quot;x&amp;quot;:&amp;quot;w&amp;quot;,&amp;quot;action&amp;quot;:&amp;quot;line&amp;quot;,&amp;quot;y&amp;quot;:&amp;quot;h&amp;quot;},{&amp;quot;x&amp;quot;:&amp;quot;0&amp;quot;,&amp;quot;action&amp;quot;:&amp;quot;line&amp;quot;,&amp;quot;y&amp;quot;:&amp;quot;h&amp;quot;},{&amp;quot;action&amp;quot;:&amp;quot;close&amp;quot;}]}],&amp;quot;lineStyle&amp;quot;:{},&amp;quot;children&amp;quot;:[],&amp;quot;resizeDir&amp;quot;:[&amp;quot;tl&amp;quot;,&amp;quot;tr&amp;quot;,&amp;quot;br&amp;quot;,&amp;quot;bl&amp;quot;],&amp;quot;name&amp;quot;:&amp;quot;process&amp;quot;,&amp;quot;fillStyle&amp;quot;:{},&amp;quot;attribute&amp;quot;:{&amp;quot;container&amp;quot;:false,&amp;quot;rotatable&amp;quot;:true,&amp;quot;visible&amp;quot;:true,&amp;quot;collapsable&amp;quot;:false,&amp;quot;collapsed&amp;quot;:false,&amp;quot;linkable&amp;quot;:true,&amp;quot;markerOffset&amp;quot;:5},&amp;quot;id&amp;quot;:&amp;quot;dtqrWWBxXt274741&amp;quot;,&amp;quot;category&amp;quot;:&amp;quot;flow&amp;quot;,&amp;quot;locked&amp;quot;:false,&amp;quot;group&amp;quot;:&amp;quot;&amp;quot;},{&amp;quot;parent&amp;quot;:&amp;quot;&amp;quot;,&amp;quot;link&amp;quot;:&amp;quot;&amp;quot;,&amp;quot;shapeStyle&amp;quot;:{&amp;quot;alpha&amp;quot;:1},&amp;quot;textBlock&amp;quot;:[{&amp;quot;position&amp;quot;:{&amp;quot;w&amp;quot;:&amp;quot;w-20&amp;quot;,&amp;quot;h&amp;quot;:&amp;quot;h&amp;quot;,&amp;quot;x&amp;quot;:10,&amp;quot;y&amp;quot;:0},&amp;quot;text&amp;quot;:&amp;quot;关键帧位姿&lt;br&gt;&amp;quot;}],&amp;quot;anchors&amp;quot;:[{&amp;quot;x&amp;quot;:&amp;quot;w/2&amp;quot;,&amp;quot;y&amp;quot;:&amp;quot;0&amp;quot;},{&amp;quot;x&amp;quot;:&amp;quot;w/2&amp;quot;,&amp;quot;y&amp;quot;:&amp;quot;h&amp;quot;},{&amp;quot;x&amp;quot;:&amp;quot;0&amp;quot;,&amp;quot;y&amp;quot;:&amp;quot;h/2&amp;quot;},{&amp;quot;x&amp;quot;:&amp;quot;w&amp;quot;,&amp;quot;y&amp;quot;:&amp;quot;h/2&amp;quot;}],&amp;quot;fontStyle&amp;quot;:{&amp;quot;color&amp;quot;:&amp;quot;33,33,33&amp;quot;},&amp;quot;dataAttributes&amp;quot;:[{&amp;quot;name&amp;quot;:&amp;quot;序号&amp;quot;,&amp;quot;id&amp;quot;:&amp;quot;xTOQjaTWfU349485&amp;quot;,&amp;quot;category&amp;quot;:&amp;quot;default&amp;quot;,&amp;quot;type&amp;quot;:&amp;quot;number&amp;quot;,&amp;quot;value&amp;quot;:&amp;quot;&amp;quot;},{&amp;quot;name&amp;quot;:&amp;quot;名称&amp;quot;,&amp;quot;id&amp;quot;:&amp;quot;zguJErPCvI930492&amp;quot;,&amp;quot;category&amp;quot;:&amp;quot;default&amp;quot;,&amp;quot;type&amp;quot;:&amp;quot;string&amp;quot;,&amp;quot;value&amp;quot;:&amp;quot;&amp;quot;},{&amp;quot;name&amp;quot;:&amp;quot;所有者&amp;quot;,&amp;quot;id&amp;quot;:&amp;quot;BsVUJPLqrT224240&amp;quot;,&amp;quot;category&amp;quot;:&amp;quot;default&amp;quot;,&amp;quot;type&amp;quot;:&amp;quot;string&amp;quot;,&amp;quot;value&amp;quot;:&amp;quot;&amp;quot;},{&amp;quot;name&amp;quot;:&amp;quot;连接&amp;quot;,&amp;quot;id&amp;quot;:&amp;quot;QcOjPAWEKH555437&amp;quot;,&amp;quot;category&amp;quot;:&amp;quot;default&amp;quot;,&amp;quot;type&amp;quot;:&amp;quot;link&amp;quot;,&amp;quot;value&amp;quot;:&amp;quot;&amp;quot;},{&amp;quot;name&amp;quot;:&amp;quot;便笺&amp;quot;,&amp;quot;id&amp;quot;:&amp;quot;uhBqfZxsrp993782&amp;quot;,&amp;quot;category&amp;quot;:&amp;quot;default&amp;quot;,&amp;quot;type&amp;quot;:&amp;quot;string&amp;quot;,&amp;quot;value&amp;quot;:&amp;quot;&amp;quot;},{&amp;quot;name&amp;quot;:&amp;quot;成本&amp;quot;,&amp;quot;id&amp;quot;:&amp;quot;RUkTGPnenL351122&amp;quot;,&amp;quot;category&amp;quot;:&amp;quot;default&amp;quot;,&amp;quot;type&amp;quot;:&amp;quot;number&amp;quot;,&amp;quot;value&amp;quot;:&amp;quot;&amp;quot;},{&amp;quot;name&amp;quot;:&amp;quot;时间&amp;quot;,&amp;quot;id&amp;quot;:&amp;quot;hvSoJAopTC278382&amp;quot;,&amp;quot;category&amp;quot;:&amp;quot;default&amp;quot;,&amp;quot;type&amp;quot;:&amp;quot;number&amp;quot;,&amp;quot;value&amp;quot;:&amp;quot;&amp;quot;},{&amp;quot;name&amp;quot;:&amp;quot;部门&amp;quot;,&amp;quot;id&amp;quot;:&amp;quot;BeJMHwGwtv079912&amp;quot;,&amp;quot;category&amp;quot;:&amp;quot;default&amp;quot;,&amp;quot;type&amp;quot;:&amp;quot;string&amp;quot;,&amp;quot;value&amp;quot;:&amp;quot;&amp;quot;},{&amp;quot;name&amp;quot;:&amp;quot;输入&amp;quot;,&amp;quot;id&amp;quot;:&amp;quot;nmOdgMEpbA324359&amp;quot;,&amp;quot;category&amp;quot;:&amp;quot;default&amp;quot;,&amp;quot;type&amp;quot;:&amp;quot;string&amp;quot;,&amp;quot;value&amp;quot;:&amp;quot;&amp;quot;},{&amp;quot;name&amp;quot;:&amp;quot;输出&amp;quot;,&amp;quot;id&amp;quot;:&amp;quot;piaglVUnAq987082&amp;quot;,&amp;quot;category&amp;quot;:&amp;quot;default&amp;quot;,&amp;quot;type&amp;quot;:&amp;quot;string&amp;quot;,&amp;quot;value&amp;quot;:&amp;quot;&amp;quot;},{&amp;quot;name&amp;quot;:&amp;quot;风险&amp;quot;,&amp;quot;id&amp;quot;:&amp;quot;mNHWvOGdlN858166&amp;quot;,&amp;quot;category&amp;quot;:&amp;quot;default&amp;quot;,&amp;quot;type&amp;quot;:&amp;quot;string&amp;quot;,&amp;quot;value&amp;quot;:&amp;quot;&amp;quot;},{&amp;quot;name&amp;quot;:&amp;quot;备注&amp;quot;,&amp;quot;id&amp;quot;:&amp;quot;KVLqaTIJBc597865&amp;quot;,&amp;quot;category&amp;quot;:&amp;quot;default&amp;quot;,&amp;quot;type&amp;quot;:&amp;quot;string&amp;quot;,&amp;quot;value&amp;quot;:&amp;quot;&amp;quot;}],&amp;quot;props&amp;quot;:{&amp;quot;zindex&amp;quot;:198,&amp;quot;w&amp;quot;:102.45833333333348,&amp;quot;x&amp;quot;:921.0133243181643,&amp;quot;h&amp;quot;:39.01527034092351,&amp;quot;y&amp;quot;:1291.7923150458855,&amp;quot;angle&amp;quot;:0},&amp;quot;path&amp;quot;:[{&amp;quot;actions&amp;quot;:[{&amp;quot;x&amp;quot;:&amp;quot;0&amp;quot;,&amp;quot;action&amp;quot;:&amp;quot;move&amp;quot;,&amp;quot;y&amp;quot;:&amp;quot;0&amp;quot;},{&amp;quot;x&amp;quot;:&amp;quot;w&amp;quot;,&amp;quot;action&amp;quot;:&amp;quot;line&amp;quot;,&amp;quot;y&amp;quot;:&amp;quot;0&amp;quot;},{&amp;quot;x&amp;quot;:&amp;quot;w&amp;quot;,&amp;quot;action&amp;quot;:&amp;quot;line&amp;quot;,&amp;quot;y&amp;quot;:&amp;quot;h&amp;quot;},{&amp;quot;x&amp;quot;:&amp;quot;0&amp;quot;,&amp;quot;action&amp;quot;:&amp;quot;line&amp;quot;,&amp;quot;y&amp;quot;:&amp;quot;h&amp;quot;},{&amp;quot;action&amp;quot;:&amp;quot;close&amp;quot;}]}],&amp;quot;lineStyle&amp;quot;:{},&amp;quot;children&amp;quot;:[],&amp;quot;resizeDir&amp;quot;:[&amp;quot;tl&amp;quot;,&amp;quot;tr&amp;quot;,&amp;quot;br&amp;quot;,&amp;quot;bl&amp;quot;],&amp;quot;name&amp;quot;:&amp;quot;process&amp;quot;,&amp;quot;fillStyle&amp;quot;:{},&amp;quot;attribute&amp;quot;:{&amp;quot;container&amp;quot;:false,&amp;quot;rotatable&amp;quot;:true,&amp;quot;visible&amp;quot;:true,&amp;quot;collapsable&amp;quot;:false,&amp;quot;collapsed&amp;quot;:false,&amp;quot;linkable&amp;quot;:true,&amp;quot;markerOffset&amp;quot;:5},&amp;quot;id&amp;quot;:&amp;quot;qXaQmcpQKQ306463&amp;quot;,&amp;quot;category&amp;quot;:&amp;quot;flow&amp;quot;,&amp;quot;locked&amp;quot;:false,&amp;quot;group&amp;quot;:&amp;quot;&amp;quot;},{&amp;quot;parent&amp;quot;:&amp;quot;&amp;quot;,&amp;quot;link&amp;quot;:&amp;quot;&amp;quot;,&amp;quot;shapeStyle&amp;quot;:{&amp;quot;alpha&amp;quot;:1},&amp;quot;textBlock&amp;quot;:[{&amp;quot;position&amp;quot;:{&amp;quot;w&amp;quot;:&amp;quot;w-20&amp;quot;,&amp;quot;h&amp;quot;:&amp;quot;h&amp;quot;,&amp;quot;x&amp;quot;:10,&amp;quot;y&amp;quot;:0},&amp;quot;text&amp;quot;:&amp;quot;栅格图构建&lt;br&gt;&amp;quot;}],&amp;quot;anchors&amp;quot;:[{&amp;quot;x&amp;quot;:&amp;quot;w/2&amp;quot;,&amp;quot;y&amp;quot;:&amp;quot;0&amp;quot;},{&amp;quot;x&amp;quot;:&amp;quot;w/2&amp;quot;,&amp;quot;y&amp;quot;:&amp;quot;h&amp;quot;},{&amp;quot;x&amp;quot;:&amp;quot;0&amp;quot;,&amp;quot;y&amp;quot;:&amp;quot;h/2&amp;quot;},{&amp;quot;x&amp;quot;:&amp;quot;w&amp;quot;,&amp;quot;y&amp;quot;:&amp;quot;h/2&amp;quot;}],&amp;quot;fontStyle&amp;quot;:{&amp;quot;color&amp;quot;:&amp;quot;33,33,33&amp;quot;},&amp;quot;dataAttributes&amp;quot;:[{&amp;quot;name&amp;quot;:&amp;quot;序号&amp;quot;,&amp;quot;id&amp;quot;:&amp;quot;igYjDtoarJ329569&amp;quot;,&amp;quot;category&amp;quot;:&amp;quot;default&amp;quot;,&amp;quot;type&amp;quot;:&amp;quot;number&amp;quot;,&amp;quot;value&amp;quot;:&amp;quot;&amp;quot;},{&amp;quot;name&amp;quot;:&amp;quot;名称&amp;quot;,&amp;quot;id&amp;quot;:&amp;quot;VbZXnvRxIf349674&amp;quot;,&amp;quot;category&amp;quot;:&amp;quot;default&amp;quot;,&amp;quot;type&amp;quot;:&amp;quot;string&amp;quot;,&amp;quot;value&amp;quot;:&amp;quot;&amp;quot;},{&amp;quot;name&amp;quot;:&amp;quot;所有者&amp;quot;,&amp;quot;id&amp;quot;:&amp;quot;yyvdPwZAgZ424892&amp;quot;,&amp;quot;category&amp;quot;:&amp;quot;default&amp;quot;,&amp;quot;type&amp;quot;:&amp;quot;string&amp;quot;,&amp;quot;value&amp;quot;:&amp;quot;&amp;quot;},{&amp;quot;name&amp;quot;:&amp;quot;连接&amp;quot;,&amp;quot;id&amp;quot;:&amp;quot;ZlwnZfFktY417335&amp;quot;,&amp;quot;category&amp;quot;:&amp;quot;default&amp;quot;,&amp;quot;type&amp;quot;:&amp;quot;link&amp;quot;,&amp;quot;value&amp;quot;:&amp;quot;&amp;quot;},{&amp;quot;name&amp;quot;:&amp;quot;便笺&amp;quot;,&amp;quot;id&amp;quot;:&amp;quot;JMLszMPFwo926895&amp;quot;,&amp;quot;category&amp;quot;:&amp;quot;default&amp;quot;,&amp;quot;type&amp;quot;:&amp;quot;string&amp;quot;,&amp;quot;value&amp;quot;:&amp;quot;&amp;quot;},{&amp;quot;name&amp;quot;:&amp;quot;成本&amp;quot;,&amp;quot;id&amp;quot;:&amp;quot;iMyGbyKPlu938443&amp;quot;,&amp;quot;category&amp;quot;:&amp;quot;default&amp;quot;,&amp;quot;type&amp;quot;:&amp;quot;number&amp;quot;,&amp;quot;value&amp;quot;:&amp;quot;&amp;quot;},{&amp;quot;name&amp;quot;:&amp;quot;时间&amp;quot;,&amp;quot;id&amp;quot;:&amp;quot;QtVunERjby832795&amp;quot;,&amp;quot;category&amp;quot;:&amp;quot;default&amp;quot;,&amp;quot;type&amp;quot;:&amp;quot;number&amp;quot;,&amp;quot;value&amp;quot;:&amp;quot;&amp;quot;},{&amp;quot;name&amp;quot;:&amp;quot;部门&amp;quot;,&amp;quot;id&amp;quot;:&amp;quot;WGFuEuMtuY381605&amp;quot;,&amp;quot;category&amp;quot;:&amp;quot;default&amp;quot;,&amp;quot;type&amp;quot;:&amp;quot;string&amp;quot;,&amp;quot;value&amp;quot;:&amp;quot;&amp;quot;},{&amp;quot;name&amp;quot;:&amp;quot;输入&amp;quot;,&amp;quot;id&amp;quot;:&amp;quot;lxUeFzxMKl945768&amp;quot;,&amp;quot;category&amp;quot;:&amp;quot;default&amp;quot;,&amp;quot;type&amp;quot;:&amp;quot;string&amp;quot;,&amp;quot;value&amp;quot;:&amp;quot;&amp;quot;},{&amp;quot;name&amp;quot;:&amp;quot;输出&amp;quot;,&amp;quot;id&amp;quot;:&amp;quot;XdOqyjfAmu254049&amp;quot;,&amp;quot;category&amp;quot;:&amp;quot;default&amp;quot;,&amp;quot;type&amp;quot;:&amp;quot;string&amp;quot;,&amp;quot;value&amp;quot;:&amp;quot;&amp;quot;},{&amp;quot;name&amp;quot;:&amp;quot;风险&amp;quot;,&amp;quot;id&amp;quot;:&amp;quot;msXOFAZeon389026&amp;quot;,&amp;quot;category&amp;quot;:&amp;quot;default&amp;quot;,&amp;quot;type&amp;quot;:&amp;quot;string&amp;quot;,&amp;quot;value&amp;quot;:&amp;quot;&amp;quot;},{&amp;quot;name&amp;quot;:&amp;quot;备注&amp;quot;,&amp;quot;id&amp;quot;:&amp;quot;pOFjxhYACP595551&amp;quot;,&amp;quot;category&amp;quot;:&amp;quot;default&amp;quot;,&amp;quot;type&amp;quot;:&amp;quot;string&amp;quot;,&amp;quot;value&amp;quot;:&amp;quot;&amp;quot;}],&amp;quot;props&amp;quot;:{&amp;quot;zindex&amp;quot;:199,&amp;quot;w&amp;quot;:102.26099503125329,&amp;quot;x&amp;quot;:1070.1536601358712,&amp;quot;h&amp;quot;:38.590017521132154,&amp;quot;y&amp;quot;:1291.7923150458855,&amp;quot;angle&amp;quot;:0},&amp;quot;path&amp;quot;:[{&amp;quot;actions&amp;quot;:[{&amp;quot;x&amp;quot;:&amp;quot;0&amp;quot;,&amp;quot;action&amp;quot;:&amp;quot;move&amp;quot;,&amp;quot;y&amp;quot;:&amp;quot;0&amp;quot;},{&amp;quot;x&amp;quot;:&amp;quot;w&amp;quot;,&amp;quot;action&amp;quot;:&amp;quot;line&amp;quot;,&amp;quot;y&amp;quot;:&amp;quot;0&amp;quot;},{&amp;quot;x&amp;quot;:&amp;quot;w&amp;quot;,&amp;quot;action&amp;quot;:&amp;quot;line&amp;quot;,&amp;quot;y&amp;quot;:&amp;quot;h&amp;quot;},{&amp;quot;x&amp;quot;:&amp;quot;0&amp;quot;,&amp;quot;action&amp;quot;:&amp;quot;line&amp;quot;,&amp;quot;y&amp;quot;:&amp;quot;h&amp;quot;},{&amp;quot;action&amp;quot;:&amp;quot;close&amp;quot;}]}],&amp;quot;lineStyle&amp;quot;:{},&amp;quot;children&amp;quot;:[],&amp;quot;resizeDir&amp;quot;:[&amp;quot;tl&amp;quot;,&amp;quot;tr&amp;quot;,&amp;quot;br&amp;quot;,&amp;quot;bl&amp;quot;],&amp;quot;name&amp;quot;:&amp;quot;process&amp;quot;,&amp;quot;fillStyle&amp;quot;:{},&amp;quot;attribute&amp;quot;:{&amp;quot;container&amp;quot;:false,&amp;quot;rotatable&amp;quot;:true,&amp;quot;visible&amp;quot;:true,&amp;quot;collapsable&amp;quot;:false,&amp;quot;collapsed&amp;quot;:false,&amp;quot;linkable&amp;quot;:true,&amp;quot;markerOffset&amp;quot;:5},&amp;quot;id&amp;quot;:&amp;quot;brotCzACbP107884&amp;quot;,&amp;quot;category&amp;quot;:&amp;quot;flow&amp;quot;,&amp;quot;locked&amp;quot;:false,&amp;quot;group&amp;quot;:&amp;quot;&amp;quot;},{&amp;quot;parent&amp;quot;:&amp;quot;&amp;quot;,&amp;quot;link&amp;quot;:&amp;quot;&amp;quot;,&amp;quot;shapeStyle&amp;quot;:{&amp;quot;alpha&amp;quot;:1},&amp;quot;textBlock&amp;quot;:[{&amp;quot;position&amp;quot;:{&amp;quot;w&amp;quot;:&amp;quot;w-20&amp;quot;,&amp;quot;h&amp;quot;:&amp;quot;h&amp;quot;,&amp;quot;x&amp;quot;:10,&amp;quot;y&amp;quot;:0},&amp;quot;text&amp;quot;:&amp;quot;移除动态物体点云&lt;br&gt;&amp;quot;}],&amp;quot;anchors&amp;quot;:[{&amp;quot;x&amp;quot;:&amp;quot;w/2&amp;quot;,&amp;quot;y&amp;quot;:&amp;quot;0&amp;quot;},{&amp;quot;x&amp;quot;:&amp;quot;w/2&amp;quot;,&amp;quot;y&amp;quot;:&amp;quot;h&amp;quot;},{&amp;quot;x&amp;quot;:&amp;quot;0&amp;quot;,&amp;quot;y&amp;quot;:&amp;quot;h/2&amp;quot;},{&amp;quot;x&amp;quot;:&amp;quot;w&amp;quot;,&amp;quot;y&amp;quot;:&amp;quot;h/2&amp;quot;}],&amp;quot;fontStyle&amp;quot;:{&amp;quot;color&amp;quot;:&amp;quot;33,33,33&amp;quot;},&amp;quot;dataAttributes&amp;quot;:[{&amp;quot;name&amp;quot;:&amp;quot;序号&amp;quot;,&amp;quot;id&amp;quot;:&amp;quot;kPLbztXnbE216477&amp;quot;,&amp;quot;category&amp;quot;:&amp;quot;default&amp;quot;,&amp;quot;type&amp;quot;:&amp;quot;number&amp;quot;,&amp;quot;value&amp;quot;:&amp;quot;&amp;quot;},{&amp;quot;name&amp;quot;:&amp;quot;名称&amp;quot;,&amp;quot;id&amp;quot;:&amp;quot;mXAkHuyrRi723259&amp;quot;,&amp;quot;category&amp;quot;:&amp;quot;default&amp;quot;,&amp;quot;type&amp;quot;:&amp;quot;string&amp;quot;,&amp;quot;value&amp;quot;:&amp;quot;&amp;quot;},{&amp;quot;name&amp;quot;:&amp;quot;所有者&amp;quot;,&amp;quot;id&amp;quot;:&amp;quot;JmNqydGXPh001300&amp;quot;,&amp;quot;category&amp;quot;:&amp;quot;default&amp;quot;,&amp;quot;type&amp;quot;:&amp;quot;string&amp;quot;,&amp;quot;value&amp;quot;:&amp;quot;&amp;quot;},{&amp;quot;name&amp;quot;:&amp;quot;连接&amp;quot;,&amp;quot;id&amp;quot;:&amp;quot;qaOujUtIyb476721&amp;quot;,&amp;quot;category&amp;quot;:&amp;quot;default&amp;quot;,&amp;quot;type&amp;quot;:&amp;quot;link&amp;quot;,&amp;quot;value&amp;quot;:&amp;quot;&amp;quot;},{&amp;quot;name&amp;quot;:&amp;quot;便笺&amp;quot;,&amp;quot;id&amp;quot;:&amp;quot;NwNqSWquNb638994&amp;quot;,&amp;quot;category&amp;quot;:&amp;quot;default&amp;quot;,&amp;quot;type&amp;quot;:&amp;quot;string&amp;quot;,&amp;quot;value&amp;quot;:&amp;quot;&amp;quot;},{&amp;quot;name&amp;quot;:&amp;quot;成本&amp;quot;,&amp;quot;id&amp;quot;:&amp;quot;hybewUNJIF497789&amp;quot;,&amp;quot;category&amp;quot;:&amp;quot;default&amp;quot;,&amp;quot;type&amp;quot;:&amp;quot;number&amp;quot;,&amp;quot;value&amp;quot;:&amp;quot;&amp;quot;},{&amp;quot;name&amp;quot;:&amp;quot;时间&amp;quot;,&amp;quot;id&amp;quot;:&amp;quot;DWPQYXFAiX058569&amp;quot;,&amp;quot;category&amp;quot;:&amp;quot;default&amp;quot;,&amp;quot;type&amp;quot;:&amp;quot;number&amp;quot;,&amp;quot;value&amp;quot;:&amp;quot;&amp;quot;},{&amp;quot;name&amp;quot;:&amp;quot;部门&amp;quot;,&amp;quot;id&amp;quot;:&amp;quot;eBIbIMKGeU524318&amp;quot;,&amp;quot;category&amp;quot;:&amp;quot;default&amp;quot;,&amp;quot;type&amp;quot;:&amp;quot;string&amp;quot;,&amp;quot;value&amp;quot;:&amp;quot;&amp;quot;},{&amp;quot;name&amp;quot;:&amp;quot;输入&amp;quot;,&amp;quot;id&amp;quot;:&amp;quot;sWtcfyZKVM158017&amp;quot;,&amp;quot;category&amp;quot;:&amp;quot;default&amp;quot;,&amp;quot;type&amp;quot;:&amp;quot;string&amp;quot;,&amp;quot;value&amp;quot;:&amp;quot;&amp;quot;},{&amp;quot;name&amp;quot;:&amp;quot;输出&amp;quot;,&amp;quot;id&amp;quot;:&amp;quot;tfElKNDpwj847098&amp;quot;,&amp;quot;category&amp;quot;:&amp;quot;default&amp;quot;,&amp;quot;type&amp;quot;:&amp;quot;string&amp;quot;,&amp;quot;value&amp;quot;:&amp;quot;&amp;quot;},{&amp;quot;name&amp;quot;:&amp;quot;风险&amp;quot;,&amp;quot;id&amp;quot;:&amp;quot;TPWmIKLCAF681374&amp;quot;,&amp;quot;category&amp;quot;:&amp;quot;default&amp;quot;,&amp;quot;type&amp;quot;:&amp;quot;string&amp;quot;,&amp;quot;value&amp;quot;:&amp;quot;&amp;quot;},{&amp;quot;name&amp;quot;:&amp;quot;备注&amp;quot;,&amp;quot;id&amp;quot;:&amp;quot;NDslpIrkct988425&amp;quot;,&amp;quot;category&amp;quot;:&amp;quot;default&amp;quot;,&amp;quot;type&amp;quot;:&amp;quot;string&amp;quot;,&amp;quot;value&amp;quot;:&amp;quot;&amp;quot;}],&amp;quot;props&amp;quot;:{&amp;quot;zindex&amp;quot;:200,&amp;quot;w&amp;quot;:34.25097689631866,&amp;quot;x&amp;quot;:1464.9801570905875,&amp;quot;h&amp;quot;:138.9826267924591,&amp;quot;y&amp;quot;:1241.5960104102219,&amp;quot;angle&amp;quot;:0},&amp;quot;path&amp;quot;:[{&amp;quot;actions&amp;quot;:[{&amp;quot;x&amp;quot;:&amp;quot;0&amp;quot;,&amp;quot;action&amp;quot;:&amp;quot;move&amp;quot;,&amp;quot;y&amp;quot;:&amp;quot;0&amp;quot;},{&amp;quot;x&amp;quot;:&amp;quot;w&amp;quot;,&amp;quot;action&amp;quot;:&amp;quot;line&amp;quot;,&amp;quot;y&amp;quot;:&amp;quot;0&amp;quot;},{&amp;quot;x&amp;quot;:&amp;quot;w&amp;quot;,&amp;quot;action&amp;quot;:&amp;quot;line&amp;quot;,&amp;quot;y&amp;quot;:&amp;quot;h&amp;quot;},{&amp;quot;x&amp;quot;:&amp;quot;0&amp;quot;,&amp;quot;action&amp;quot;:&amp;quot;line&amp;quot;,&amp;quot;y&amp;quot;:&amp;quot;h&amp;quot;},{&amp;quot;action&amp;quot;:&amp;quot;close&amp;quot;}]}],&amp;quot;lineStyle&amp;quot;:{},&amp;quot;children&amp;quot;:[],&amp;quot;resizeDir&amp;quot;:[&amp;quot;tl&amp;quot;,&amp;quot;tr&amp;quot;,&amp;quot;br&amp;quot;,&amp;quot;bl&amp;quot;],&amp;quot;name&amp;quot;:&amp;quot;process&amp;quot;,&amp;quot;fillStyle&amp;quot;:{},&amp;quot;attribute&amp;quot;:{&amp;quot;container&amp;quot;:false,&amp;quot;rotatable&amp;quot;:true,&amp;quot;visible&amp;quot;:true,&amp;quot;collapsable&amp;quot;:false,&amp;quot;collapsed&amp;quot;:false,&amp;quot;linkable&amp;quot;:true,&amp;quot;markerOffset&amp;quot;:5},&amp;quot;id&amp;quot;:&amp;quot;ymjUIqaJzj684151&amp;quot;,&amp;quot;category&amp;quot;:&amp;quot;flow&amp;quot;,&amp;quot;locked&amp;quot;:false,&amp;quot;group&amp;quot;:&amp;quot;&amp;quot;},{&amp;quot;linkerType&amp;quot;:&amp;quot;broken&amp;quot;,&amp;quot;lineStyle&amp;quot;:{},&amp;quot;name&amp;quot;:&amp;quot;linker&amp;quot;,&amp;quot;from&amp;quot;:{&amp;quot;x&amp;quot;:1435.4755922919758,&amp;quot;y&amp;quot;:1311.0873238064514,&amp;quot;angle&amp;quot;:3.141592653589793,&amp;quot;id&amp;quot;:&amp;quot;fKGXaTqaad440715&amp;quot;},&amp;quot;id&amp;quot;:&amp;quot;pehtpayAJQ985547&amp;quot;,&amp;quot;text&amp;quot;:&amp;quot;&amp;quot;,&amp;quot;to&amp;quot;:{&amp;quot;x&amp;quot;:1464.9801570905875,&amp;quot;y&amp;quot;:1311.0873238064514,&amp;quot;angle&amp;quot;:0,&amp;quot;id&amp;quot;:&amp;quot;ymjUIqaJzj684151&amp;quot;},&amp;quot;locked&amp;quot;:false,&amp;quot;group&amp;quot;:&amp;quot;&amp;quot;,&amp;quot;points&amp;quot;:[{&amp;quot;x&amp;quot;:1450.2278746912816,&amp;quot;y&amp;quot;:1311.0873238064514},{&amp;quot;x&amp;quot;:1450.2278746912816,&amp;quot;y&amp;quot;:1311.0873238064514}],&amp;quot;dataAttributes&amp;quot;:[],&amp;quot;props&amp;quot;:{&amp;quot;zindex&amp;quot;:201}},{&amp;quot;linkerType&amp;quot;:&amp;quot;broken&amp;quot;,&amp;quot;lineStyle&amp;quot;:{},&amp;quot;name&amp;quot;:&amp;quot;linker&amp;quot;,&amp;quot;from&amp;quot;:{&amp;quot;x&amp;quot;:972.2424909848311,&amp;quot;y&amp;quot;:1206.5747632703085,&amp;quot;angle&amp;quot;:1.570796326794897,&amp;quot;id&amp;quot;:&amp;quot;hXEpCicZCC312153&amp;quot;},&amp;quot;id&amp;quot;:&amp;quot;hLubvNUEJe110229&amp;quot;,&amp;quot;text&amp;quot;:&amp;quot;&amp;quot;,&amp;quot;to&amp;quot;:{&amp;quot;x&amp;quot;:1384.345094776349,&amp;quot;y&amp;quot;:1291.7923150458855,&amp;quot;angle&amp;quot;:1.570796326794897,&amp;quot;id&amp;quot;:&amp;quot;fKGXaTqaad440715&amp;quot;},&amp;quot;locked&amp;quot;:false,&amp;quot;group&amp;quot;:&amp;quot;&amp;quot;,&amp;quot;points&amp;quot;:[{&amp;quot;x&amp;quot;:972.2424909848311,&amp;quot;y&amp;quot;:1176.5747632703085},{&amp;quot;x&amp;quot;:1384.345094776349,&amp;quot;y&amp;quot;:1176.5747632703085}],&amp;quot;dataAttributes&amp;quot;:[],&amp;quot;props&amp;quot;:{&amp;quot;zindex&amp;quot;:202}},{&amp;quot;parent&amp;quot;:&amp;quot;&amp;quot;,&amp;quot;link&amp;quot;:&amp;quot;&amp;quot;,&amp;quot;shapeStyle&amp;quot;:{&amp;quot;alpha&amp;quot;:1},&amp;quot;textBlock&amp;quot;:[{&amp;quot;position&amp;quot;:{&amp;quot;w&amp;quot;:&amp;quot;w-20&amp;quot;,&amp;quot;h&amp;quot;:&amp;quot;h&amp;quot;,&amp;quot;x&amp;quot;:10,&amp;quot;y&amp;quot;:0},&amp;quot;text&amp;quot;:&amp;quot;根据强度值计算描述子&lt;br&gt;&amp;quot;}],&amp;quot;anchors&amp;quot;:[{&amp;quot;x&amp;quot;:&amp;quot;w/2&amp;quot;,&amp;quot;y&amp;quot;:&amp;quot;0&amp;quot;},{&amp;quot;x&amp;quot;:&amp;quot;w/2&amp;quot;,&amp;quot;y&amp;quot;:&amp;quot;h&amp;quot;},{&amp;quot;x&amp;quot;:&amp;quot;0&amp;quot;,&amp;quot;y&amp;quot;:&amp;quot;h/2&amp;quot;},{&amp;quot;x&amp;quot;:&amp;quot;w&amp;quot;,&amp;quot;y&amp;quot;:&amp;quot;h/2&amp;quot;}],&amp;quot;fontStyle&amp;quot;:{&amp;quot;color&amp;quot;:&amp;quot;33,33,33&amp;quot;},&amp;quot;dataAttributes&amp;quot;:[{&amp;quot;name&amp;quot;:&amp;quot;序号&amp;quot;,&amp;quot;id&amp;quot;:&amp;quot;YCCmTWTMGd816632&amp;quot;,&amp;quot;category&amp;quot;:&amp;quot;default&amp;quot;,&amp;quot;type&amp;quot;:&amp;quot;number&amp;quot;,&amp;quot;value&amp;quot;:&amp;quot;&amp;quot;},{&amp;quot;name&amp;quot;:&amp;quot;名称&amp;quot;,&amp;quot;id&amp;quot;:&amp;quot;SrGuxiAOcS000468&amp;quot;,&amp;quot;category&amp;quot;:&amp;quot;default&amp;quot;,&amp;quot;type&amp;quot;:&amp;quot;string&amp;quot;,&amp;quot;value&amp;quot;:&amp;quot;&amp;quot;},{&amp;quot;name&amp;quot;:&amp;quot;所有者&amp;quot;,&amp;quot;id&amp;quot;:&amp;quot;gEyCaJeePO145187&amp;quot;,&amp;quot;category&amp;quot;:&amp;quot;default&amp;quot;,&amp;quot;type&amp;quot;:&amp;quot;string&amp;quot;,&amp;quot;value&amp;quot;:&amp;quot;&amp;quot;},{&amp;quot;name&amp;quot;:&amp;quot;连接&amp;quot;,&amp;quot;id&amp;quot;:&amp;quot;BLKKWwOuVX770294&amp;quot;,&amp;quot;category&amp;quot;:&amp;quot;default&amp;quot;,&amp;quot;type&amp;quot;:&amp;quot;link&amp;quot;,&amp;quot;value&amp;quot;:&amp;quot;&amp;quot;},{&amp;quot;name&amp;quot;:&amp;quot;便笺&amp;quot;,&amp;quot;id&amp;quot;:&amp;quot;WVfPyQENTn819211&amp;quot;,&amp;quot;category&amp;quot;:&amp;quot;default&amp;quot;,&amp;quot;type&amp;quot;:&amp;quot;string&amp;quot;,&amp;quot;value&amp;quot;:&amp;quot;&amp;quot;},{&amp;quot;name&amp;quot;:&amp;quot;成本&amp;quot;,&amp;quot;id&amp;quot;:&amp;quot;qOQNFumSje909364&amp;quot;,&amp;quot;category&amp;quot;:&amp;quot;default&amp;quot;,&amp;quot;type&amp;quot;:&amp;quot;number&amp;quot;,&amp;quot;value&amp;quot;:&amp;quot;&amp;quot;},{&amp;quot;name&amp;quot;:&amp;quot;时间&amp;quot;,&amp;quot;id&amp;quot;:&amp;quot;rcOcqkGmVP247241&amp;quot;,&amp;quot;category&amp;quot;:&amp;quot;default&amp;quot;,&amp;quot;type&amp;quot;:&amp;quot;number&amp;quot;,&amp;quot;value&amp;quot;:&amp;quot;&amp;quot;},{&amp;quot;name&amp;quot;:&amp;quot;部门&amp;quot;,&amp;quot;id&amp;quot;:&amp;quot;wWcLYSHiRT043817&amp;quot;,&amp;quot;category&amp;quot;:&amp;quot;default&amp;quot;,&amp;quot;type&amp;quot;:&amp;quot;string&amp;quot;,&amp;quot;value&amp;quot;:&amp;quot;&amp;quot;},{&amp;quot;name&amp;quot;:&amp;quot;输入&amp;quot;,&amp;quot;id&amp;quot;:&amp;quot;kvScipCkvJ691443&amp;quot;,&amp;quot;category&amp;quot;:&amp;quot;default&amp;quot;,&amp;quot;type&amp;quot;:&amp;quot;string&amp;quot;,&amp;quot;value&amp;quot;:&amp;quot;&amp;quot;},{&amp;quot;name&amp;quot;:&amp;quot;输出&amp;quot;,&amp;quot;id&amp;quot;:&amp;quot;ttRffcTyHO152225&amp;quot;,&amp;quot;category&amp;quot;:&amp;quot;default&amp;quot;,&amp;quot;type&amp;quot;:&amp;quot;string&amp;quot;,&amp;quot;value&amp;quot;:&amp;quot;&amp;quot;},{&amp;quot;name&amp;quot;:&amp;quot;风险&amp;quot;,&amp;quot;id&amp;quot;:&amp;quot;qZiXnatxxy993291&amp;quot;,&amp;quot;category&amp;quot;:&amp;quot;default&amp;quot;,&amp;quot;type&amp;quot;:&amp;quot;string&amp;quot;,&amp;quot;value&amp;quot;:&amp;quot;&amp;quot;},{&amp;quot;name&amp;quot;:&amp;quot;备注&amp;quot;,&amp;quot;id&amp;quot;:&amp;quot;kRvnSmhUSI246356&amp;quot;,&amp;quot;category&amp;quot;:&amp;quot;default&amp;quot;,&amp;quot;type&amp;quot;:&amp;quot;string&amp;quot;,&amp;quot;value&amp;quot;:&amp;quot;&amp;quot;}],&amp;quot;props&amp;quot;:{&amp;quot;zindex&amp;quot;:203,&amp;quot;w&amp;quot;:102.45833333333348,&amp;quot;x&amp;quot;:1070.0549909848314,&amp;quot;h&amp;quot;:39.01527034092351,&amp;quot;y&amp;quot;:1206.6835391580971,&amp;quot;angle&amp;quot;:0},&amp;quot;path&amp;quot;:[{&amp;quot;actions&amp;quot;:[{&amp;quot;x&amp;quot;:&amp;quot;0&amp;quot;,&amp;quot;action&amp;quot;:&amp;quot;move&amp;quot;,&amp;quot;y&amp;quot;:&amp;quot;0&amp;quot;},{&amp;quot;x&amp;quot;:&amp;quot;w&amp;quot;,&amp;quot;action&amp;quot;:&amp;quot;line&amp;quot;,&amp;quot;y&amp;quot;:&amp;quot;0&amp;quot;},{&amp;quot;x&amp;quot;:&amp;quot;w&amp;quot;,&amp;quot;action&amp;quot;:&amp;quot;line&amp;quot;,&amp;quot;y&amp;quot;:&amp;quot;h&amp;quot;},{&amp;quot;x&amp;quot;:&amp;quot;0&amp;quot;,&amp;quot;action&amp;quot;:&amp;quot;line&amp;quot;,&amp;quot;y&amp;quot;:&amp;quot;h&amp;quot;},{&amp;quot;action&amp;quot;:&amp;quot;close&amp;quot;}]}],&amp;quot;lineStyle&amp;quot;:{},&amp;quot;children&amp;quot;:[],&amp;quot;resizeDir&amp;quot;:[&amp;quot;tl&amp;quot;,&amp;quot;tr&amp;quot;,&amp;quot;br&amp;quot;,&amp;quot;bl&amp;quot;],&amp;quot;name&amp;quot;:&amp;quot;process&amp;quot;,&amp;quot;fillStyle&amp;quot;:{},&amp;quot;attribute&amp;quot;:{&amp;quot;container&amp;quot;:false,&amp;quot;rotatable&amp;quot;:true,&amp;quot;visible&amp;quot;:true,&amp;quot;collapsable&amp;quot;:false,&amp;quot;collapsed&amp;quot;:false,&amp;quot;linkable&amp;quot;:true,&amp;quot;markerOffset&amp;quot;:5},&amp;quot;id&amp;quot;:&amp;quot;yuQReCUnMH133786&amp;quot;,&amp;quot;category&amp;quot;:&amp;quot;flow&amp;quot;,&amp;quot;locked&amp;quot;:false,&amp;quot;group&amp;quot;:&amp;quot;&amp;quot;},{&amp;quot;linkerType&amp;quot;:&amp;quot;broken&amp;quot;,&amp;quot;lineStyle&amp;quot;:{},&amp;quot;name&amp;quot;:&amp;quot;linker&amp;quot;,&amp;quot;from&amp;quot;:{&amp;quot;x&amp;quot;:1023.2216576514977,&amp;quot;y&amp;quot;:1226.1911743285586,&amp;quot;angle&amp;quot;:3.141592653589793,&amp;quot;id&amp;quot;:&amp;quot;hXEpCicZCC312153&amp;quot;},&amp;quot;id&amp;quot;:&amp;quot;fGGTgFOqex263005&amp;quot;,&amp;quot;text&amp;quot;:&amp;quot;&amp;quot;,&amp;quot;to&amp;quot;:{&amp;quot;x&amp;quot;:1070.0549909848314,&amp;quot;y&amp;quot;:1226.1911743285586,&amp;quot;angle&amp;quot;:0,&amp;quot;id&amp;quot;:&amp;quot;yuQReCUnMH133786&amp;quot;},&amp;quot;locked&amp;quot;:false,&amp;quot;group&amp;quot;:&amp;quot;&amp;quot;,&amp;quot;points&amp;quot;:[{&amp;quot;x&amp;quot;:1046.6383243181645,&amp;quot;y&amp;quot;:1226.1911743285586},{&amp;quot;x&amp;quot;:1046.6383243181645,&amp;quot;y&amp;quot;:1226.1911743285586}],&amp;quot;dataAttributes&amp;quot;:[],&amp;quot;props&amp;quot;:{&amp;quot;zindex&amp;quot;:204}},{&amp;quot;parent&amp;quot;:&amp;quot;&amp;quot;,&amp;quot;link&amp;quot;:&amp;quot;&amp;quot;,&amp;quot;shapeStyle&amp;quot;:{&amp;quot;alpha&amp;quot;:1},&amp;quot;textBlock&amp;quot;:[{&amp;quot;position&amp;quot;:{&amp;quot;w&amp;quot;:&amp;quot;w-20&amp;quot;,&amp;quot;h&amp;quot;:&amp;quot;h&amp;quot;,&amp;quot;x&amp;quot;:10,&amp;quot;y&amp;quot;:0},&amp;quot;text&amp;quot;:&amp;quot;识别动态区域&lt;br&gt;&amp;quot;}],&amp;quot;anchors&amp;quot;:[{&amp;quot;x&amp;quot;:&amp;quot;w/2&amp;quot;,&amp;quot;y&amp;quot;:&amp;quot;0&amp;quot;},{&amp;quot;x&amp;quot;:&amp;quot;w/2&amp;quot;,&amp;quot;y&amp;quot;:&amp;quot;h&amp;quot;},{&amp;quot;x&amp;quot;:&amp;quot;0&amp;quot;,&amp;quot;y&amp;quot;:&amp;quot;h/2&amp;quot;},{&amp;quot;x&amp;quot;:&amp;quot;w&amp;quot;,&amp;quot;y&amp;quot;:&amp;quot;h/2&amp;quot;}],&amp;quot;fontStyle&amp;quot;:{&amp;quot;color&amp;quot;:&amp;quot;33,33,33&amp;quot;},&amp;quot;dataAttributes&amp;quot;:[{&amp;quot;name&amp;quot;:&amp;quot;序号&amp;quot;,&amp;quot;id&amp;quot;:&amp;quot;qlNtwbutnz882808&amp;quot;,&amp;quot;category&amp;quot;:&amp;quot;default&amp;quot;,&amp;quot;type&amp;quot;:&amp;quot;number&amp;quot;,&amp;quot;value&amp;quot;:&amp;quot;&amp;quot;},{&amp;quot;name&amp;quot;:&amp;quot;名称&amp;quot;,&amp;quot;id&amp;quot;:&amp;quot;CjFJDnlwRn065407&amp;quot;,&amp;quot;category&amp;quot;:&amp;quot;default&amp;quot;,&amp;quot;type&amp;quot;:&amp;quot;string&amp;quot;,&amp;quot;value&amp;quot;:&amp;quot;&amp;quot;},{&amp;quot;name&amp;quot;:&amp;quot;所有者&amp;quot;,&amp;quot;id&amp;quot;:&amp;quot;nGhxOleMdb700628&amp;quot;,&amp;quot;category&amp;quot;:&amp;quot;default&amp;quot;,&amp;quot;type&amp;quot;:&amp;quot;string&amp;quot;,&amp;quot;value&amp;quot;:&amp;quot;&amp;quot;},{&amp;quot;name&amp;quot;:&amp;quot;连接&amp;quot;,&amp;quot;id&amp;quot;:&amp;quot;HMuOfBhxuo005507&amp;quot;,&amp;quot;category&amp;quot;:&amp;quot;default&amp;quot;,&amp;quot;type&amp;quot;:&amp;quot;link&amp;quot;,&amp;quot;value&amp;quot;:&amp;quot;&amp;quot;},{&amp;quot;name&amp;quot;:&amp;quot;便笺&amp;quot;,&amp;quot;id&amp;quot;:&amp;quot;bAhnjmpBwb050591&amp;quot;,&amp;quot;category&amp;quot;:&amp;quot;default&amp;quot;,&amp;quot;type&amp;quot;:&amp;quot;string&amp;quot;,&amp;quot;value&amp;quot;:&amp;quot;&amp;quot;},{&amp;quot;name&amp;quot;:&amp;quot;成本&amp;quot;,&amp;quot;id&amp;quot;:&amp;quot;FONlEedhMe019012&amp;quot;,&amp;quot;category&amp;quot;:&amp;quot;default&amp;quot;,&amp;quot;type&amp;quot;:&amp;quot;number&amp;quot;,&amp;quot;value&amp;quot;:&amp;quot;&amp;quot;},{&amp;quot;name&amp;quot;:&amp;quot;时间&amp;quot;,&amp;quot;id&amp;quot;:&amp;quot;rYRiJHrmUH918450&amp;quot;,&amp;quot;category&amp;quot;:&amp;quot;default&amp;quot;,&amp;quot;type&amp;quot;:&amp;quot;number&amp;quot;,&amp;quot;value&amp;quot;:&amp;quot;&amp;quot;},{&amp;quot;name&amp;quot;:&amp;quot;部门&amp;quot;,&amp;quot;id&amp;quot;:&amp;quot;LGBvYcVwxk165492&amp;quot;,&amp;quot;category&amp;quot;:&amp;quot;default&amp;quot;,&amp;quot;type&amp;quot;:&amp;quot;string&amp;quot;,&amp;quot;value&amp;quot;:&amp;quot;&amp;quot;},{&amp;quot;name&amp;quot;:&amp;quot;输入&amp;quot;,&amp;quot;id&amp;quot;:&amp;quot;CeTbHMrohS991723&amp;quot;,&amp;quot;category&amp;quot;:&amp;quot;default&amp;quot;,&amp;quot;type&amp;quot;:&amp;quot;string&amp;quot;,&amp;quot;value&amp;quot;:&amp;quot;&amp;quot;},{&amp;quot;name&amp;quot;:&amp;quot;输出&amp;quot;,&amp;quot;id&amp;quot;:&amp;quot;NrRitLlAzr150552&amp;quot;,&amp;quot;category&amp;quot;:&amp;quot;default&amp;quot;,&amp;quot;type&amp;quot;:&amp;quot;string&amp;quot;,&amp;quot;value&amp;quot;:&amp;quot;&amp;quot;},{&amp;quot;name&amp;quot;:&amp;quot;风险&amp;quot;,&amp;quot;id&amp;quot;:&amp;quot;NlLoBYpaKa252484&amp;quot;,&amp;quot;category&amp;quot;:&amp;quot;default&amp;quot;,&amp;quot;type&amp;quot;:&amp;quot;string&amp;quot;,&amp;quot;value&amp;quot;:&amp;quot;&amp;quot;},{&amp;quot;name&amp;quot;:&amp;quot;备注&amp;quot;,&amp;quot;id&amp;quot;:&amp;quot;ZxZtZyPYOe129454&amp;quot;,&amp;quot;category&amp;quot;:&amp;quot;default&amp;quot;,&amp;quot;type&amp;quot;:&amp;quot;string&amp;quot;,&amp;quot;value&amp;quot;:&amp;quot;&amp;quot;}],&amp;quot;props&amp;quot;:{&amp;quot;zindex&amp;quot;:205,&amp;quot;w&amp;quot;:102.26099503125329,&amp;quot;x&amp;quot;:1201.1894708611007,&amp;quot;h&amp;quot;:38.590017521132154,&amp;quot;y&amp;quot;:1291.7923150458855,&amp;quot;angle&amp;quot;:0},&amp;quot;path&amp;quot;:[{&amp;quot;actions&amp;quot;:[{&amp;quot;x&amp;quot;:&amp;quot;0&amp;quot;,&amp;quot;action&amp;quot;:&amp;quot;move&amp;quot;,&amp;quot;y&amp;quot;:&amp;quot;0&amp;quot;},{&amp;quot;x&amp;quot;:&amp;quot;w&amp;quot;,&amp;quot;action&amp;quot;:&amp;quot;line&amp;quot;,&amp;quot;y&amp;quot;:&amp;quot;0&amp;quot;},{&amp;quot;x&amp;quot;:&amp;quot;w&amp;quot;,&amp;quot;action&amp;quot;:&amp;quot;line&amp;quot;,&amp;quot;y&amp;quot;:&amp;quot;h&amp;quot;},{&amp;quot;x&amp;quot;:&amp;quot;0&amp;quot;,&amp;quot;action&amp;quot;:&amp;quot;line&amp;quot;,&amp;quot;y&amp;quot;:&amp;quot;h&amp;quot;},{&amp;quot;action&amp;quot;:&amp;quot;close&amp;quot;}]}],&amp;quot;lineStyle&amp;quot;:{},&amp;quot;children&amp;quot;:[],&amp;quot;resizeDir&amp;quot;:[&amp;quot;tl&amp;quot;,&amp;quot;tr&amp;quot;,&amp;quot;br&amp;quot;,&amp;quot;bl&amp;quot;],&amp;quot;name&amp;quot;:&amp;quot;process&amp;quot;,&amp;quot;fillStyle&amp;quot;:{},&amp;quot;attribute&amp;quot;:{&amp;quot;container&amp;quot;:false,&amp;quot;rotatable&amp;quot;:true,&amp;quot;visible&amp;quot;:true,&amp;quot;collapsable&amp;quot;:false,&amp;quot;collapsed&amp;quot;:false,&amp;quot;linkable&amp;quot;:true,&amp;quot;markerOffset&amp;quot;:5},&amp;quot;id&amp;quot;:&amp;quot;lBtHxMkyoS736127&amp;quot;,&amp;quot;category&amp;quot;:&amp;quot;flow&amp;quot;,&amp;quot;locked&amp;quot;:false,&amp;quot;group&amp;quot;:&amp;quot;&amp;quot;},{&amp;quot;parent&amp;quot;:&amp;quot;&amp;quot;,&amp;quot;link&amp;quot;:&amp;quot;&amp;quot;,&amp;quot;shapeStyle&amp;quot;:{&amp;quot;alpha&amp;quot;:1},&amp;quot;textBlock&amp;quot;:[{&amp;quot;position&amp;quot;:{&amp;quot;w&amp;quot;:&amp;quot;w-20&amp;quot;,&amp;quot;h&amp;quot;:&amp;quot;h&amp;quot;,&amp;quot;x&amp;quot;:10,&amp;quot;y&amp;quot;:0},&amp;quot;text&amp;quot;:&amp;quot;平面拟合&lt;br&gt;&amp;quot;}],&amp;quot;anchors&amp;quot;:[{&amp;quot;x&amp;quot;:&amp;quot;w/2&amp;quot;,&amp;quot;y&amp;quot;:&amp;quot;0&amp;quot;},{&amp;quot;x&amp;quot;:&amp;quot;w/2&amp;quot;,&amp;quot;y&amp;quot;:&amp;quot;h&amp;quot;},{&amp;quot;x&amp;quot;:&amp;quot;0&amp;quot;,&amp;quot;y&amp;quot;:&amp;quot;h/2&amp;quot;},{&amp;quot;x&amp;quot;:&amp;quot;w&amp;quot;,&amp;quot;y&amp;quot;:&amp;quot;h/2&amp;quot;}],&amp;quot;fontStyle&amp;quot;:{&amp;quot;color&amp;quot;:&amp;quot;33,33,33&amp;quot;},&amp;quot;dataAttributes&amp;quot;:[{&amp;quot;name&amp;quot;:&amp;quot;序号&amp;quot;,&amp;quot;id&amp;quot;:&amp;quot;QhMZoZyNdG531306&amp;quot;,&amp;quot;category&amp;quot;:&amp;quot;default&amp;quot;,&amp;quot;type&amp;quot;:&amp;quot;number&amp;quot;,&amp;quot;value&amp;quot;:&amp;quot;&amp;quot;},{&amp;quot;name&amp;quot;:&amp;quot;名称&amp;quot;,&amp;quot;id&amp;quot;:&amp;quot;mqxQZzMARR081681&amp;quot;,&amp;quot;category&amp;quot;:&amp;quot;default&amp;quot;,&amp;quot;type&amp;quot;:&amp;quot;string&amp;quot;,&amp;quot;value&amp;quot;:&amp;quot;&amp;quot;},{&amp;quot;name&amp;quot;:&amp;quot;所有者&amp;quot;,&amp;quot;id&amp;quot;:&amp;quot;ushrXveGkE527334&amp;quot;,&amp;quot;category&amp;quot;:&amp;quot;default&amp;quot;,&amp;quot;type&amp;quot;:&amp;quot;string&amp;quot;,&amp;quot;value&amp;quot;:&amp;quot;&amp;quot;},{&amp;quot;name&amp;quot;:&amp;quot;连接&amp;quot;,&amp;quot;id&amp;quot;:&amp;quot;yyGfkcupUx696062&amp;quot;,&amp;quot;category&amp;quot;:&amp;quot;default&amp;quot;,&amp;quot;type&amp;quot;:&amp;quot;link&amp;quot;,&amp;quot;value&amp;quot;:&amp;quot;&amp;quot;},{&amp;quot;name&amp;quot;:&amp;quot;便笺&amp;quot;,&amp;quot;id&amp;quot;:&amp;quot;jXQoFDdZLA723570&amp;quot;,&amp;quot;category&amp;quot;:&amp;quot;default&amp;quot;,&amp;quot;type&amp;quot;:&amp;quot;string&amp;quot;,&amp;quot;value&amp;quot;:&amp;quot;&amp;quot;},{&amp;quot;name&amp;quot;:&amp;quot;成本&amp;quot;,&amp;quot;id&amp;quot;:&amp;quot;bzyrnKxBAK081709&amp;quot;,&amp;quot;category&amp;quot;:&amp;quot;default&amp;quot;,&amp;quot;type&amp;quot;:&amp;quot;number&amp;quot;,&amp;quot;value&amp;quot;:&amp;quot;&amp;quot;},{&amp;quot;name&amp;quot;:&amp;quot;时间&amp;quot;,&amp;quot;id&amp;quot;:&amp;quot;rZZLDdVlBS462684&amp;quot;,&amp;quot;category&amp;quot;:&amp;quot;default&amp;quot;,&amp;quot;type&amp;quot;:&amp;quot;number&amp;quot;,&amp;quot;value&amp;quot;:&amp;quot;&amp;quot;},{&amp;quot;name&amp;quot;:&amp;quot;部门&amp;quot;,&amp;quot;id&amp;quot;:&amp;quot;ildPYSmGvB770262&amp;quot;,&amp;quot;category&amp;quot;:&amp;quot;default&amp;quot;,&amp;quot;type&amp;quot;:&amp;quot;string&amp;quot;,&amp;quot;value&amp;quot;:&amp;quot;&amp;quot;},{&amp;quot;name&amp;quot;:&amp;quot;输入&amp;quot;,&amp;quot;id&amp;quot;:&amp;quot;ZmavLvkDCP387625&amp;quot;,&amp;quot;category&amp;quot;:&amp;quot;default&amp;quot;,&amp;quot;type&amp;quot;:&amp;quot;string&amp;quot;,&amp;quot;value&amp;quot;:&amp;quot;&amp;quot;},{&amp;quot;name&amp;quot;:&amp;quot;输出&amp;quot;,&amp;quot;id&amp;quot;:&amp;quot;dVTWNXnpjZ455096&amp;quot;,&amp;quot;category&amp;quot;:&amp;quot;default&amp;quot;,&amp;quot;type&amp;quot;:&amp;quot;string&amp;quot;,&amp;quot;value&amp;quot;:&amp;quot;&amp;quot;},{&amp;quot;name&amp;quot;:&amp;quot;风险&amp;quot;,&amp;quot;id&amp;quot;:&amp;quot;yKbvcnGgqf525860&amp;quot;,&amp;quot;category&amp;quot;:&amp;quot;default&amp;quot;,&amp;quot;type&amp;quot;:&amp;quot;string&amp;quot;,&amp;quot;value&amp;quot;:&amp;quot;&amp;quot;},{&amp;quot;name&amp;quot;:&amp;quot;备注&amp;quot;,&amp;quot;id&amp;quot;:&amp;quot;bgymEzSTxf658560&amp;quot;,&amp;quot;category&amp;quot;:&amp;quot;default&amp;quot;,&amp;quot;type&amp;quot;:&amp;quot;string&amp;quot;,&amp;quot;value&amp;quot;:&amp;quot;&amp;quot;}],&amp;quot;props&amp;quot;:{&amp;quot;zindex&amp;quot;:206,&amp;quot;w&amp;quot;:102.26099503125329,&amp;quot;x&amp;quot;:1333.2145972607227,&amp;quot;h&amp;quot;:38.590017521132154,&amp;quot;y&amp;quot;:1291.7923150458855,&amp;quot;angle&amp;quot;:0},&amp;quot;path&amp;quot;:[{&amp;quot;actions&amp;quot;:[{&amp;quot;x&amp;quot;:&amp;quot;0&amp;quot;,&amp;quot;action&amp;quot;:&amp;quot;move&amp;quot;,&amp;quot;y&amp;quot;:&amp;quot;0&amp;quot;},{&amp;quot;x&amp;quot;:&amp;quot;w&amp;quot;,&amp;quot;action&amp;quot;:&amp;quot;line&amp;quot;,&amp;quot;y&amp;quot;:&amp;quot;0&amp;quot;},{&amp;quot;x&amp;quot;:&amp;quot;w&amp;quot;,&amp;quot;action&amp;quot;:&amp;quot;line&amp;quot;,&amp;quot;y&amp;quot;:&amp;quot;h&amp;quot;},{&amp;quot;x&amp;quot;:&amp;quot;0&amp;quot;,&amp;quot;action&amp;quot;:&amp;quot;line&amp;quot;,&amp;quot;y&amp;quot;:&amp;quot;h&amp;quot;},{&amp;quot;action&amp;quot;:&amp;quot;close&amp;quot;}]}],&amp;quot;lineStyle&amp;quot;:{},&amp;quot;children&amp;quot;:[],&amp;quot;resizeDir&amp;quot;:[&amp;quot;tl&amp;quot;,&amp;quot;tr&amp;quot;,&amp;quot;br&amp;quot;,&amp;quot;bl&amp;quot;],&amp;quot;name&amp;quot;:&amp;quot;process&amp;quot;,&amp;quot;fillStyle&amp;quot;:{},&amp;quot;attribute&amp;quot;:{&amp;quot;container&amp;quot;:false,&amp;quot;rotatable&amp;quot;:true,&amp;quot;visible&amp;quot;:true,&amp;quot;collapsable&amp;quot;:false,&amp;quot;collapsed&amp;quot;:false,&amp;quot;linkable&amp;quot;:true,&amp;quot;markerOffset&amp;quot;:5},&amp;quot;id&amp;quot;:&amp;quot;fKGXaTqaad440715&amp;quot;,&amp;quot;category&amp;quot;:&amp;quot;flow&amp;quot;,&amp;quot;locked&amp;quot;:false,&amp;quot;group&amp;quot;:&amp;quot;&amp;quot;},{&amp;quot;linkerType&amp;quot;:&amp;quot;broken&amp;quot;,&amp;quot;lineStyle&amp;quot;:{},&amp;quot;name&amp;quot;:&amp;quot;linker&amp;quot;,&amp;quot;from&amp;quot;:{&amp;quot;x&amp;quot;:1121.284157651498,&amp;quot;y&amp;quot;:1245.6988094990206,&amp;quot;angle&amp;quot;:4.71238898038469,&amp;quot;id&amp;quot;:&amp;quot;yuQReCUnMH133786&amp;quot;},&amp;quot;id&amp;quot;:&amp;quot;QKnBbsbUoP155058&amp;quot;,&amp;quot;text&amp;quot;:&amp;quot;&amp;quot;,&amp;quot;to&amp;quot;:{&amp;quot;x&amp;quot;:1121.284157651498,&amp;quot;y&amp;quot;:1291.7923150458855,&amp;quot;angle&amp;quot;:1.570796326794897,&amp;quot;id&amp;quot;:&amp;quot;brotCzACbP107884&amp;quot;},&amp;quot;locked&amp;quot;:false,&amp;quot;group&amp;quot;:&amp;quot;&amp;quot;,&amp;quot;points&amp;quot;:[{&amp;quot;x&amp;quot;:1121.284157651498,&amp;quot;y&amp;quot;:1268.745562272453},{&amp;quot;x&amp;quot;:1121.284157651498,&amp;quot;y&amp;quot;:1268.745562272453}],&amp;quot;dataAttributes&amp;quot;:[],&amp;quot;props&amp;quot;:{&amp;quot;zindex&amp;quot;:207}},{&amp;quot;linkerType&amp;quot;:&amp;quot;broken&amp;quot;,&amp;quot;lineStyle&amp;quot;:{},&amp;quot;name&amp;quot;:&amp;quot;linker&amp;quot;,&amp;quot;from&amp;quot;:{&amp;quot;x&amp;quot;:1023.4716576514977,&amp;quot;y&amp;quot;:1311.2999502163473,&amp;quot;angle&amp;quot;:3.141592653589793,&amp;quot;id&amp;quot;:&amp;quot;qXaQmcpQKQ306463&amp;quot;},&amp;quot;id&amp;quot;:&amp;quot;RQsEliJmaM467389&amp;quot;,&amp;quot;text&amp;quot;:&amp;quot;&amp;quot;,&amp;quot;to&amp;quot;:{&amp;quot;x&amp;quot;:1070.1536601358712,&amp;quot;y&amp;quot;:1311.2999502163473,&amp;quot;angle&amp;quot;:0,&amp;quot;id&amp;quot;:&amp;quot;brotCzACbP107884&amp;quot;},&amp;quot;locked&amp;quot;:false,&amp;quot;group&amp;quot;:&amp;quot;&amp;quot;,&amp;quot;points&amp;quot;:[{&amp;quot;x&amp;quot;:1046.8126588936843,&amp;quot;y&amp;quot;:1311.2999502163473},{&amp;quot;x&amp;quot;:1046.8126588936843,&amp;quot;y&amp;quot;:1311.2999502163473}],&amp;quot;dataAttributes&amp;quot;:[],&amp;quot;props&amp;quot;:{&amp;quot;zindex&amp;quot;:208}},{&amp;quot;linkerType&amp;quot;:&amp;quot;broken&amp;quot;,&amp;quot;lineStyle&amp;quot;:{},&amp;quot;name&amp;quot;:&amp;quot;linker&amp;quot;,&amp;quot;from&amp;quot;:{&amp;quot;x&amp;quot;:1303.4504658923538,&amp;quot;y&amp;quot;:1311.0873238064514,&amp;quot;angle&amp;quot;:3.141592653589793,&amp;quot;id&amp;quot;:&amp;quot;lBtHxMkyoS736127&amp;quot;},&amp;quot;id&amp;quot;:&amp;quot;bTtBFzgsdG710987&amp;quot;,&amp;quot;text&amp;quot;:&amp;quot;&amp;quot;,&amp;quot;to&amp;quot;:{&amp;quot;x&amp;quot;:1333.2145972607227,&amp;quot;y&amp;quot;:1311.0873238064514,&amp;quot;angle&amp;quot;:0,&amp;quot;id&amp;quot;:&amp;quot;fKGXaTqaad440715&amp;quot;},&amp;quot;locked&amp;quot;:false,&amp;quot;group&amp;quot;:&amp;quot;&amp;quot;,&amp;quot;points&amp;quot;:[{&amp;quot;x&amp;quot;:1318.3325315765383,&amp;quot;y&amp;quot;:1311.0873238064514},{&amp;quot;x&amp;quot;:1318.3325315765383,&amp;quot;y&amp;quot;:1311.0873238064514}],&amp;quot;dataAttributes&amp;quot;:[],&amp;quot;props&amp;quot;:{&amp;quot;zindex&amp;quot;:209}},{&amp;quot;linkerType&amp;quot;:&amp;quot;broken&amp;quot;,&amp;quot;lineStyle&amp;quot;:{},&amp;quot;name&amp;quot;:&amp;quot;linker&amp;quot;,&amp;quot;from&amp;quot;:{&amp;quot;x&amp;quot;:1252.3199683767275,&amp;quot;y&amp;quot;:1330.3823325670176,&amp;quot;angle&amp;quot;:4.71238898038469,&amp;quot;id&amp;quot;:&amp;quot;lBtHxMkyoS736127&amp;quot;},&amp;quot;id&amp;quot;:&amp;quot;VjGXUSccCn110031&amp;quot;,&amp;quot;text&amp;quot;:&amp;quot;&amp;quot;,&amp;quot;to&amp;quot;:{&amp;quot;x&amp;quot;:1482.1056455387466,&amp;quot;y&amp;quot;:1380.578637202681,&amp;quot;angle&amp;quot;:4.71238898038469,&amp;quot;id&amp;quot;:&amp;quot;ymjUIqaJzj684151&amp;quot;},&amp;quot;locked&amp;quot;:false,&amp;quot;group&amp;quot;:&amp;quot;&amp;quot;,&amp;quot;points&amp;quot;:[{&amp;quot;x&amp;quot;:1252.3199683767275,&amp;quot;y&amp;quot;:1410.578637202681},{&amp;quot;x&amp;quot;:1482.1056455387466,&amp;quot;y&amp;quot;:1410.578637202681}],&amp;quot;dataAttributes&amp;quot;:[],&amp;quot;props&amp;quot;:{&amp;quot;zindex&amp;quot;:210}},{&amp;quot;linkerType&amp;quot;:&amp;quot;broken&amp;quot;,&amp;quot;lineStyle&amp;quot;:{},&amp;quot;name&amp;quot;:&amp;quot;linker&amp;quot;,&amp;quot;from&amp;quot;:{&amp;quot;x&amp;quot;:1172.4146551671247,&amp;quot;y&amp;quot;:1311.0873238064516,&amp;quot;angle&amp;quot;:3.141592653589793,&amp;quot;id&amp;quot;:&amp;quot;brotCzACbP107884&amp;quot;},&amp;quot;id&amp;quot;:&amp;quot;winlyWmCNp795547&amp;quot;,&amp;quot;text&amp;quot;:&amp;quot;&amp;quot;,&amp;quot;to&amp;quot;:{&amp;quot;x&amp;quot;:1201.1894708611007,&amp;quot;y&amp;quot;:1311.0873238064514,&amp;quot;angle&amp;quot;:0,&amp;quot;id&amp;quot;:&amp;quot;lBtHxMkyoS736127&amp;quot;},&amp;quot;locked&amp;quot;:false,&amp;quot;group&amp;quot;:&amp;quot;&amp;quot;,&amp;quot;points&amp;quot;:[{&amp;quot;x&amp;quot;:1186.8020630141127,&amp;quot;y&amp;quot;:1311.0873238064516},{&amp;quot;x&amp;quot;:1186.8020630141127,&amp;quot;y&amp;quot;:1311.0873238064514}],&amp;quot;dataAttributes&amp;quot;:[],&amp;quot;props&amp;quot;:{&amp;quot;zindex&amp;quot;:211}},{&amp;quot;linkerType&amp;quot;:&amp;quot;broken&amp;quot;,&amp;quot;lineStyle&amp;quot;:{},&amp;quot;name&amp;quot;:&amp;quot;linker&amp;quot;,&amp;quot;from&amp;quot;:{&amp;quot;x&amp;quot;:1023.4716576514977,&amp;quot;y&amp;quot;:1396.3587758877886,&amp;quot;angle&amp;quot;:3.141592653589793,&amp;quot;id&amp;quot;:&amp;quot;dtqrWWBxXt274741&amp;quot;},&amp;quot;id&amp;quot;:&amp;quot;LKoPyZtPmu160781&amp;quot;,&amp;quot;text&amp;quot;:&amp;quot;&amp;quot;,&amp;quot;to&amp;quot;:{&amp;quot;x&amp;quot;:1121.284157651498,&amp;quot;y&amp;quot;:1330.3823325670178,&amp;quot;angle&amp;quot;:4.71238898038469,&amp;quot;id&amp;quot;:&amp;quot;brotCzACbP107884&amp;quot;},&amp;quot;locked&amp;quot;:false,&amp;quot;group&amp;quot;:&amp;quot;&amp;quot;,&amp;quot;points&amp;quot;:[{&amp;quot;x&amp;quot;:1121.284157651498,&amp;quot;y&amp;quot;:1396.3587758877886}],&amp;quot;dataAttributes&amp;quot;:[],&amp;quot;props&amp;quot;:{&amp;quot;zindex&amp;quot;:212}},{&amp;quot;parent&amp;quot;:&amp;quot;&amp;quot;,&amp;quot;link&amp;quot;:&amp;quot;&amp;quot;,&amp;quot;shapeStyle&amp;quot;:{&amp;quot;alpha&amp;quot;:1},&amp;quot;textBlock&amp;quot;:[{&amp;quot;position&amp;quot;:{&amp;quot;w&amp;quot;:&amp;quot;w-20&amp;quot;,&amp;quot;h&amp;quot;:&amp;quot;h&amp;quot;,&amp;quot;x&amp;quot;:10,&amp;quot;y&amp;quot;:0},&amp;quot;text&amp;quot;:&amp;quot;3D静态点云地图&amp;quot;}],&amp;quot;anchors&amp;quot;:[{&amp;quot;x&amp;quot;:&amp;quot;w/2&amp;quot;,&amp;quot;y&amp;quot;:&amp;quot;0&amp;quot;},{&amp;quot;x&amp;quot;:&amp;quot;w/2&amp;quot;,&amp;quot;y&amp;quot;:&amp;quot;h&amp;quot;},{&amp;quot;x&amp;quot;:&amp;quot;0&amp;quot;,&amp;quot;y&amp;quot;:&amp;quot;h/2&amp;quot;},{&amp;quot;x&amp;quot;:&amp;quot;w&amp;quot;,&amp;quot;y&amp;quot;:&amp;quot;h/2&amp;quot;}],&amp;quot;fontStyle&amp;quot;:{&amp;quot;color&amp;quot;:&amp;quot;33,33,33&amp;quot;},&amp;quot;dataAttributes&amp;quot;:[{&amp;quot;name&amp;quot;:&amp;quot;序号&amp;quot;,&amp;quot;id&amp;quot;:&amp;quot;BUhYOUTdYA611793&amp;quot;,&amp;quot;category&amp;quot;:&amp;quot;default&amp;quot;,&amp;quot;type&amp;quot;:&amp;quot;number&amp;quot;,&amp;quot;value&amp;quot;:&amp;quot;&amp;quot;},{&amp;quot;name&amp;quot;:&amp;quot;名称&amp;quot;,&amp;quot;id&amp;quot;:&amp;quot;ygqSUwuFsM716417&amp;quot;,&amp;quot;category&amp;quot;:&amp;quot;default&amp;quot;,&amp;quot;type&amp;quot;:&amp;quot;string&amp;quot;,&amp;quot;value&amp;quot;:&amp;quot;&amp;quot;},{&amp;quot;name&amp;quot;:&amp;quot;所有者&amp;quot;,&amp;quot;id&amp;quot;:&amp;quot;HFUtCcingZ139328&amp;quot;,&amp;quot;category&amp;quot;:&amp;quot;default&amp;quot;,&amp;quot;type&amp;quot;:&amp;quot;string&amp;quot;,&amp;quot;value&amp;quot;:&amp;quot;&amp;quot;},{&amp;quot;name&amp;quot;:&amp;quot;连接&amp;quot;,&amp;quot;id&amp;quot;:&amp;quot;ggGlvGwoRJ703827&amp;quot;,&amp;quot;category&amp;quot;:&amp;quot;default&amp;quot;,&amp;quot;type&amp;quot;:&amp;quot;link&amp;quot;,&amp;quot;value&amp;quot;:&amp;quot;&amp;quot;},{&amp;quot;name&amp;quot;:&amp;quot;便笺&amp;quot;,&amp;quot;id&amp;quot;:&amp;quot;yCTvKLCPKY806943&amp;quot;,&amp;quot;category&amp;quot;:&amp;quot;default&amp;quot;,&amp;quot;type&amp;quot;:&amp;quot;string&amp;quot;,&amp;quot;value&amp;quot;:&amp;quot;&amp;quot;},{&amp;quot;name&amp;quot;:&amp;quot;成本&amp;quot;,&amp;quot;id&amp;quot;:&amp;quot;kBNHfWrEPU584035&amp;quot;,&amp;quot;category&amp;quot;:&amp;quot;default&amp;quot;,&amp;quot;type&amp;quot;:&amp;quot;number&amp;quot;,&amp;quot;value&amp;quot;:&amp;quot;&amp;quot;},{&amp;quot;name&amp;quot;:&amp;quot;时间&amp;quot;,&amp;quot;id&amp;quot;:&amp;quot;MgOihUqYfO829510&amp;quot;,&amp;quot;category&amp;quot;:&amp;quot;default&amp;quot;,&amp;quot;type&amp;quot;:&amp;quot;number&amp;quot;,&amp;quot;value&amp;quot;:&amp;quot;&amp;quot;},{&amp;quot;name&amp;quot;:&amp;quot;部门&amp;quot;,&amp;quot;id&amp;quot;:&amp;quot;qUYtYrLzpR334702&amp;quot;,&amp;quot;category&amp;quot;:&amp;quot;default&amp;quot;,&amp;quot;type&amp;quot;:&amp;quot;string&amp;quot;,&amp;quot;value&amp;quot;:&amp;quot;&amp;quot;},{&amp;quot;name&amp;quot;:&amp;quot;输入&amp;quot;,&amp;quot;id&amp;quot;:&amp;quot;lBdrVFTIhP858054&amp;quot;,&amp;quot;category&amp;quot;:&amp;quot;default&amp;quot;,&amp;quot;type&amp;quot;:&amp;quot;string&amp;quot;,&amp;quot;value&amp;quot;:&amp;quot;&amp;quot;},{&amp;quot;name&amp;quot;:&amp;quot;输出&amp;quot;,&amp;quot;id&amp;quot;:&amp;quot;hdMVpfTovK469836&amp;quot;,&amp;quot;category&amp;quot;:&amp;quot;default&amp;quot;,&amp;quot;type&amp;quot;:&amp;quot;string&amp;quot;,&amp;quot;value&amp;quot;:&amp;quot;&amp;quot;},{&amp;quot;name&amp;quot;:&amp;quot;风险&amp;quot;,&amp;quot;id&amp;quot;:&amp;quot;tdhXckLxQH876619&amp;quot;,&amp;quot;category&amp;quot;:&amp;quot;default&amp;quot;,&amp;quot;type&amp;quot;:&amp;quot;string&amp;quot;,&amp;quot;value&amp;quot;:&amp;quot;&amp;quot;},{&amp;quot;name&amp;quot;:&amp;quot;备注&amp;quot;,&amp;quot;id&amp;quot;:&amp;quot;YQupODQfnQ063255&amp;quot;,&amp;quot;category&amp;quot;:&amp;quot;default&amp;quot;,&amp;quot;type&amp;quot;:&amp;quot;string&amp;quot;,&amp;quot;value&amp;quot;:&amp;quot;&amp;quot;}],&amp;quot;props&amp;quot;:{&amp;quot;zindex&amp;quot;:213,&amp;quot;w&amp;quot;:34.25097689631866,&amp;quot;x&amp;quot;:1528.7356987855173,&amp;quot;h&amp;quot;:138.9826267924591,&amp;quot;y&amp;quot;:1241.5960104102219,&amp;quot;angle&amp;quot;:0},&amp;quot;path&amp;quot;:[{&amp;quot;actions&amp;quot;:[{&amp;quot;x&amp;quot;:&amp;quot;0&amp;quot;,&amp;quot;action&amp;quot;:&amp;quot;move&amp;quot;,&amp;quot;y&amp;quot;:&amp;quot;0&amp;quot;},{&amp;quot;x&amp;quot;:&amp;quot;w&amp;quot;,&amp;quot;action&amp;quot;:&amp;quot;line&amp;quot;,&amp;quot;y&amp;quot;:&amp;quot;0&amp;quot;},{&amp;quot;x&amp;quot;:&amp;quot;w&amp;quot;,&amp;quot;action&amp;quot;:&amp;quot;line&amp;quot;,&amp;quot;y&amp;quot;:&amp;quot;h&amp;quot;},{&amp;quot;x&amp;quot;:&amp;quot;0&amp;quot;,&amp;quot;action&amp;quot;:&amp;quot;line&amp;quot;,&amp;quot;y&amp;quot;:&amp;quot;h&amp;quot;},{&amp;quot;action&amp;quot;:&amp;quot;close&amp;quot;}]}],&amp;quot;lineStyle&amp;quot;:{},&amp;quot;children&amp;quot;:[],&amp;quot;resizeDir&amp;quot;:[&amp;quot;tl&amp;quot;,&amp;quot;tr&amp;quot;,&amp;quot;br&amp;quot;,&amp;quot;bl&amp;quot;],&amp;quot;name&amp;quot;:&amp;quot;process&amp;quot;,&amp;quot;fillStyle&amp;quot;:{},&amp;quot;attribute&amp;quot;:{&amp;quot;container&amp;quot;:false,&amp;quot;rotatable&amp;quot;:true,&amp;quot;visible&amp;quot;:true,&amp;quot;collapsable&amp;quot;:false,&amp;quot;collapsed&amp;quot;:false,&amp;quot;linkable&amp;quot;:true,&amp;quot;markerOffset&amp;quot;:5},&amp;quot;id&amp;quot;:&amp;quot;oVGKJUsYmn362739&amp;quot;,&amp;quot;category&amp;quot;:&amp;quot;flow&amp;quot;,&amp;quot;locked&amp;quot;:false,&amp;quot;group&amp;quot;:&amp;quot;&amp;quot;},{&amp;quot;linkerType&amp;quot;:&amp;quot;broken&amp;quot;,&amp;quot;lineStyle&amp;quot;:{},&amp;quot;name&amp;quot;:&amp;quot;linker&amp;quot;,&amp;quot;from&amp;quot;:{&amp;quot;x&amp;quot;:1499.2311339869061,&amp;quot;y&amp;quot;:1311.0873238064514,&amp;quot;angle&amp;quot;:3.141592653589793,&amp;quot;id&amp;quot;:&amp;quot;ymjUIqaJzj684151&amp;quot;},&amp;quot;id&amp;quot;:&amp;quot;OCMREmHDLt405451&amp;quot;,&amp;quot;text&amp;quot;:&amp;quot;&amp;quot;,&amp;quot;to&amp;quot;:{&amp;quot;x&amp;quot;:1528.7356987855173,&amp;quot;y&amp;quot;:1311.0873238064514,&amp;quot;angle&amp;quot;:0,&amp;quot;id&amp;quot;:&amp;quot;oVGKJUsYmn362739&amp;quot;},&amp;quot;locked&amp;quot;:false,&amp;quot;group&amp;quot;:&amp;quot;&amp;quot;,&amp;quot;points&amp;quot;:[{&amp;quot;x&amp;quot;:1513.9834163862115,&amp;quot;y&amp;quot;:1311.0873238064514},{&amp;quot;x&amp;quot;:1513.9834163862115,&amp;quot;y&amp;quot;:1311.0873238064514}],&amp;quot;dataAttributes&amp;quot;:[],&amp;quot;props&amp;quot;:{&amp;quot;zindex&amp;quot;:214}}],&amp;quot;client&amp;quot;:&amp;quot;1679559065294ARHjwfVPjq718118&amp;quot;}&quot; data-t=&quot;flow&quot;&gt; &lt;/div&gt;" style="text;whiteSpace=wrap;html=1;" parent="1" vertex="1">
          <mxGeometry x="250" y="550" width="30" height="20" as="geometry" />
        </mxCell>
        <mxCell id="5_tiHbaoTRnMNyBQFw8H-28" value="" style="edgeStyle=orthogonalEdgeStyle;rounded=0;orthogonalLoop=1;jettySize=auto;html=1;" parent="1" source="5_tiHbaoTRnMNyBQFw8H-16" target="5_tiHbaoTRnMNyBQFw8H-12" edge="1">
          <mxGeometry relative="1" as="geometry" />
        </mxCell>
        <mxCell id="5_tiHbaoTRnMNyBQFw8H-42" style="edgeStyle=orthogonalEdgeStyle;rounded=0;orthogonalLoop=1;jettySize=auto;html=1;entryX=0.25;entryY=1;entryDx=0;entryDy=0;" parent="1" source="5_tiHbaoTRnMNyBQFw8H-16" target="5_tiHbaoTRnMNyBQFw8H-20" edge="1">
          <mxGeometry relative="1" as="geometry">
            <Array as="points">
              <mxPoint x="320" y="360" />
              <mxPoint x="525" y="360" />
            </Array>
          </mxGeometry>
        </mxCell>
        <mxCell id="5_tiHbaoTRnMNyBQFw8H-16" value="动态区域识别" style="rounded=1;whiteSpace=wrap;html=1;fontFamily=Tahoma;" parent="1" vertex="1">
          <mxGeometry x="280" y="250" width="90" height="40" as="geometry" />
        </mxCell>
        <mxCell id="5_tiHbaoTRnMNyBQFw8H-44" value="" style="edgeStyle=orthogonalEdgeStyle;rounded=0;orthogonalLoop=1;jettySize=auto;html=1;" parent="1" source="5_tiHbaoTRnMNyBQFw8H-17" target="5_tiHbaoTRnMNyBQFw8H-16" edge="1">
          <mxGeometry relative="1" as="geometry" />
        </mxCell>
        <mxCell id="5_tiHbaoTRnMNyBQFw8H-17" value="描述子模型构建" style="rounded=1;whiteSpace=wrap;html=1;fontFamily=Tahoma;fillColor=#76608a;fontColor=#ffffff;strokeColor=#432D57;" parent="1" vertex="1">
          <mxGeometry x="280" y="160" width="90" height="40" as="geometry" />
        </mxCell>
        <mxCell id="5_tiHbaoTRnMNyBQFw8H-40" value="" style="edgeStyle=orthogonalEdgeStyle;rounded=0;orthogonalLoop=1;jettySize=auto;html=1;" parent="1" source="5_tiHbaoTRnMNyBQFw8H-18" target="5_tiHbaoTRnMNyBQFw8H-16" edge="1">
          <mxGeometry relative="1" as="geometry" />
        </mxCell>
        <mxCell id="5_tiHbaoTRnMNyBQFw8H-18" value="栅格图构建" style="rounded=1;whiteSpace=wrap;html=1;fontFamily=Tahoma;" parent="1" vertex="1">
          <mxGeometry x="160" y="250" width="90" height="40" as="geometry" />
        </mxCell>
        <mxCell id="5_tiHbaoTRnMNyBQFw8H-30" value="" style="edgeStyle=orthogonalEdgeStyle;rounded=0;orthogonalLoop=1;jettySize=auto;html=1;" parent="1" source="5_tiHbaoTRnMNyBQFw8H-20" target="5_tiHbaoTRnMNyBQFw8H-11" edge="1">
          <mxGeometry relative="1" as="geometry" />
        </mxCell>
        <mxCell id="5_tiHbaoTRnMNyBQFw8H-20" value="移除动态物体点云" style="rounded=1;whiteSpace=wrap;html=1;fontFamily=Tahoma;" parent="1" vertex="1">
          <mxGeometry x="520" y="200" width="20" height="140" as="geometry" />
        </mxCell>
        <mxCell id="OkzOcSB25WAne4fQIANy-1" value="栅格图构建" style="rounded=1;whiteSpace=wrap;html=1;fontFamily=Tahoma;" vertex="1" parent="1">
          <mxGeometry x="256" y="558" width="90" height="40" as="geometry" />
        </mxCell>
      </root>
    </mxGraphModel>
  </diagram>
</mxfile>
